<svg class="wave-svg" width="558" height="675" viewBox="0 0 558 675" fill="none" xmlns="http://www.w3.org/2000/svg">
<path d="M23 5.39163C23 8.27019 20.0899 9 16.5 9C12.9101 9 10 5.86461 10 2.98605C10 0.107489 12.9101 0.179537 16.5 0.179537C20.0899 0.179537 23 -1.49623 23 5.39163Z" fill="white" fill-opacity="0.4"/>
<path d="M539.929 648.958C543.838 654.808 538.874 660.272 531.527 665.181C524.18 670.091 513.965 667.699 510.056 661.849C506.146 655.999 512.2 652.165 519.547 647.255C526.894 642.345 530.573 634.959 539.929 648.958Z" fill="white" fill-opacity="0.4"/>
<path d="M222.682 183.488C223.944 182.794 225.572 181.691 227.322 180.915C230.537 179.445 233.996 178.383 237.089 176.626C241.158 174.298 245.187 171.766 246.123 166.497C246.611 163.76 246.977 160.942 247.832 158.287C248.524 156.204 249.704 154.243 250.925 152.405C252.227 150.404 253.611 148.361 255.361 146.809C256.866 145.543 258.901 144.645 260.814 144.195C264.72 143.297 268.586 142.357 272.697 142.398C275.342 142.439 278.028 140.968 280.592 139.866C281.243 139.58 281.487 138.15 281.69 137.211C281.853 136.435 281.731 135.536 281.731 134.719C281.731 132.473 282.748 131.247 284.987 130.757C287.306 130.226 289.585 129.532 291.905 129.123C294.875 128.552 297.358 130.063 299.515 131.697C302.323 133.861 304.846 136.394 307.45 138.763C310.828 141.867 314.938 143.746 319.008 145.706C321.571 146.932 324.094 148.157 326.658 149.423C330.768 151.507 335.041 153.385 339.721 152.283C341.349 151.915 342.733 150.036 343.954 148.647C345.744 146.564 348.308 145.094 349.692 145.87C351.075 146.646 352.337 147.585 353.72 148.321C356.284 149.709 358.726 151.384 361.452 152.201C364.912 153.263 367.557 155.183 369.551 158.083C370.568 159.553 371.748 160.452 373.702 160.901C377.608 161.799 380.986 163.637 383.102 167.436C383.753 168.621 385.422 169.315 386.805 169.928C389.573 171.153 392.584 171.847 395.148 173.399C396.613 174.257 398.2 175.319 399.217 177.198C400.194 179.077 401.741 180.588 401.415 182.998C397.956 185.245 394.782 183.652 391.526 182.059C388.718 180.67 385.829 179.404 382.939 178.301C382.37 178.097 381.474 178.914 380.66 179.281C383.509 183.243 387.863 184.509 391.648 186.674C393.032 187.491 394.415 188.39 395.88 189.002C397.63 189.737 399.502 190.269 401.293 190.881C404.833 192.025 408.374 193.087 411.426 195.333C412.077 195.823 412.24 196.926 412.321 197.988C413.094 198.397 413.827 198.928 414.641 199.214C416.391 199.785 418.059 198.07 418.181 195.497C418.303 193.046 419.728 192.719 421.396 192.556C425.222 192.229 429.088 192.311 432.547 194.271C434.012 195.088 435.232 196.354 436.616 197.376C437.389 197.947 438.163 198.723 439.058 198.968C442.069 199.867 443.575 202.563 445.488 204.605C448.255 207.505 450.615 210.936 452.772 214.367C454.237 216.695 455.051 219.473 456.231 222.005C458.103 226.09 460.138 230.133 461.969 234.299C463.271 237.24 464.329 240.263 465.469 243.245C466.12 244.96 466.853 246.635 467.422 248.391C467.992 250.229 468.44 252.149 468.887 254.028C470.19 259.828 469.661 265.75 469.62 271.591C469.579 275.267 469.62 279.066 468.724 282.538C467.504 287.276 467.789 292.054 468.318 296.67C468.887 301.408 468.399 306.105 468.806 310.762C468.969 312.845 469.905 314.969 470.922 316.847C472.672 320.074 474.951 323.056 476.619 326.324C477.515 328.039 477.433 330.204 478.044 332.083C479.549 336.902 478.858 341.845 478.735 346.746C478.654 350.585 477.759 354.384 477.189 358.183C476.904 360.143 476.701 362.145 476.253 364.064C475.928 365.453 475.236 366.76 474.747 368.108C474.3 369.333 473.811 370.559 473.404 371.825C471.899 376.767 468.847 380.933 466.323 385.345C463.109 390.94 459.487 396.291 454.725 400.702C450.941 404.174 447.075 407.524 443.372 411.077C440.645 413.691 438.244 416.55 436.291 419.9C434.419 423.167 431.896 426.067 429.454 428.967C427.256 431.54 425.628 434.44 423.716 437.177C422.007 439.669 420.135 442.038 418.344 444.488C416.838 446.571 415.455 448.736 413.868 450.778C413.013 451.881 411.874 452.739 410.938 453.76C407.153 457.845 403.735 462.297 399.543 465.891C394.985 469.771 390.346 473.978 384.12 475.286C379.887 476.184 376.021 478.186 371.952 479.452C369.347 480.269 368.778 482.515 368.167 484.639C367.15 488.233 365.481 491.215 362.022 493.012C358.441 494.85 355.104 497.546 351.319 498.445C346.924 499.507 343.994 502.733 340.006 504.204C338.094 504.898 336.669 506.859 334.96 508.166C331.908 510.617 328.896 513.067 325.763 515.395C322.263 518.01 318.682 520.542 315.06 523.074C312.903 524.586 310.624 525.852 308.427 527.322C305.863 529.038 303.34 530.835 300.858 532.632C297.317 535.164 293.695 537.452 289.463 538.636C287.021 539.29 284.58 539.902 282.097 540.393C279.004 541.005 275.871 541.577 272.697 541.986C271.883 542.108 270.987 541.414 270.133 541.291C267.447 540.964 264.761 540.801 262.075 540.393C260.285 540.107 258.576 539.453 256.826 539.004C255.483 538.636 254.099 538.269 252.756 537.86C250.192 537.125 247.669 536.39 245.105 535.614C243.193 535.042 241.361 534.225 239.408 533.776C235.501 532.877 232.042 530.998 228.583 529.119C224.025 526.669 219.59 524.014 215.113 521.4C212.712 519.97 210.352 518.459 208.032 516.907C204.37 514.456 200.422 512.25 197.167 509.31C193.952 506.409 190.371 503.509 189.231 498.812C188.865 497.26 187.685 495.912 187.156 494.36C186.505 492.604 186.993 490.848 188.336 489.581C189.597 488.438 189.882 486.967 189.231 485.783C188.784 484.925 187.359 484.598 185.894 483.74C187.644 483.128 189.313 482.352 191.062 482.025C192.812 481.698 194.115 481.249 194.806 479.411C195.173 478.471 196.149 477.736 196.434 476.797C196.678 476.021 196.394 475.081 196.231 474.224C195.946 472.835 195.335 471.487 195.295 470.098C195.254 466.994 194.766 466.626 192.08 465.115C190.045 463.971 188.458 462.052 186.79 460.336C185.813 459.315 186.993 459.029 187.603 458.621C188.824 457.804 190.167 457.069 191.307 456.129C192.609 455.026 193.382 455.026 194.237 456.578C195.376 458.621 196.719 460.5 199.079 461.317C200.463 461.807 201.887 462.256 203.271 462.746C208.439 464.462 212.997 463.155 217.229 460.009C218.532 459.029 218.613 456.456 217.189 455.353C216.131 454.495 214.706 453.842 213.363 453.556C209.294 452.657 205.224 451.84 201.399 450.125C200.87 449.88 200.463 448.981 200.3 448.328C199.812 446 200.951 443.998 201.684 441.874C202.945 438.362 206.242 437.586 208.887 436.197C212.305 434.4 216.09 433.215 219.793 432.031C222.845 431.05 225.979 430.519 229.275 431.05C232.327 431.54 235.461 431.622 238.554 431.949C239.083 431.99 239.612 432.684 240.059 432.643C241.443 432.48 242.786 432.071 244.251 431.745C243.152 428.069 240.914 425.986 238.106 424.311C235.542 422.759 233.06 421.043 230.577 419.328C229.112 418.307 228.38 416.836 228.38 415.039C228.38 413.242 228.38 411.445 228.339 409.607C228.298 406.788 226.996 405.359 224.31 404.256C221.991 403.276 220.281 401.315 219.386 398.987C218.857 397.639 220.444 397.598 221.136 397.843C223.049 398.456 224.839 399.559 226.752 400.09C227.932 400.416 229.316 400.171 230.618 400.049C232.002 399.926 233.385 399.354 234.688 399.518C235.746 399.64 236.641 400.376 236.6 401.928C236.559 404.869 237.943 406.257 240.507 406.012C241.199 405.931 241.891 405.073 242.379 404.419C242.623 404.133 242.542 403.48 242.46 402.99C241.891 399.804 244.047 397.925 245.757 395.76C246.489 394.862 247.222 393.759 247.425 392.656C247.832 390.369 245.675 387.673 243.111 387.795C240.344 387.877 237.618 388.653 234.891 389.184C233.304 389.47 231.798 389.919 230.211 390.164C228.624 390.409 228.136 391.716 227.444 392.86C226.996 393.636 226.752 394.576 226.142 395.188C224.799 396.618 224.432 396.455 223.863 394.698C222.438 395.311 221.462 394.535 220.526 393.595C218.898 391.962 217.311 389.96 214.747 390.246C213.16 390.409 211.613 391.431 210.067 392.043C209.335 392.329 208.561 392.615 207.829 392.901C207.666 392.738 207.463 392.574 207.3 392.411C207.585 391.594 207.747 390.736 208.154 390.001C209.131 388.081 207.625 385.508 205.468 385.181C203.719 384.895 201.725 384.487 200.422 383.425C199.283 382.485 198.917 380.525 198.428 378.973C198.347 378.728 199.324 377.87 199.893 377.788C202.172 377.38 204.533 377.216 206.811 376.849C207.34 376.767 207.829 376.236 208.236 375.828C210.555 373.418 213.119 371.294 216.293 370.15C216.538 370.069 216.7 369.824 216.904 369.66C218.125 368.68 219.142 362.022 218.003 361.042C216.741 359.98 215.154 359.204 213.607 358.509C211.491 357.57 209.212 356.916 207.137 355.895C204.777 354.711 202.498 353.322 200.219 351.974C197.452 350.3 195.173 348.38 195.864 344.54C196.434 341.354 194.725 339.067 192.487 337.025C190.249 334.942 188.214 332.573 185.813 330.735C183.168 328.692 180.156 327.059 177.348 325.221C176.494 324.649 175.598 324.118 174.784 323.464C171.936 321.259 169.046 319.135 166.361 316.766C164.082 314.764 163.96 312.109 164.773 309.209C165.465 306.718 165.669 304.022 163.39 302.143C160.297 299.611 157.082 297.242 153.786 294.954C152.117 293.811 149.961 293.361 148.495 292.054C146.339 290.135 144.589 287.725 142.717 285.519C140.886 283.354 138.729 282.374 135.758 282.497C132.34 282.619 128.962 282.66 126.113 284.907C123.753 286.785 121.596 288.991 119.114 290.707C116.713 292.381 114.027 293.688 111.341 294.914C110.608 295.24 109.388 294.873 108.492 294.505C104.708 293.035 101.045 291.605 96.8128 291.687C93.4351 291.769 89.8133 290.543 88.0634 287.398C87.0053 285.478 86.8019 282.66 87.1681 280.414C87.5344 278.208 88.2262 275.839 90.1796 274.083C92.4992 272 95.0629 271.183 97.7895 272.735C99.4173 273.674 101.086 274.736 102.876 275.104C105.766 275.716 108.736 275.962 111.667 276.043C113.945 276.084 116.265 275.798 118.463 275.226C120.009 274.818 121.108 273.592 121.148 271.55C121.189 269.916 121.962 268.242 122.573 266.649C123.265 264.811 122.369 263.422 121.555 261.952C120.538 260.154 119.48 258.357 118.87 256.438C118.625 255.661 119.236 254.232 119.928 253.578C121.393 252.149 123.142 251.046 124.811 249.861C126.968 248.35 128.189 246.063 129.369 243.857C130.549 241.611 131.566 239.242 132.502 236.873C133.316 234.912 133.764 232.788 134.7 230.95C136.246 227.846 138.932 225.845 141.984 224.292C144.345 223.108 145.891 221.433 146.257 218.492C146.42 217.104 147.315 215.633 146.746 214.245C146.013 212.366 146.176 210.201 144.507 208.485C143.002 206.974 144.141 204.932 145.81 203.38C148.129 201.256 150.734 202.114 153.298 201.746C155.332 201.46 157.57 200.888 159.158 199.704C161.762 197.784 164.489 197.376 167.5 197.621C168.762 197.743 170.023 198.152 171.325 198.356C174.418 198.887 175.843 196.518 177.633 194.761C178.651 193.74 179.668 192.597 180.889 191.861C182.517 190.881 184.307 189.942 186.179 189.574C187.766 189.247 189.557 189.533 191.185 189.901C194.074 190.554 195.864 192.842 197.818 194.843C199.568 196.599 201.562 196.191 204.329 194.68C206.73 193.332 209.212 192.27 212.02 191.861C213.648 191.616 215.235 190.881 216.863 190.432C217.514 190.268 218.287 190.391 218.898 190.146C220.159 189.615 221.869 189.166 222.438 188.145C223.13 186.919 222.682 185.163 222.682 183.488ZM192.202 314.356C193.301 314.356 194.44 314.519 195.498 314.315C196.597 314.07 197.94 313.743 198.632 312.926C199.486 311.987 198.306 307.739 197.329 306.759C194.644 304.063 192.08 301.245 189.353 298.631C187.563 296.915 185.609 295.363 183.615 293.892C182.313 292.912 179.953 293.443 179.505 294.669C179.139 295.731 178.528 296.833 178.651 297.854C178.935 300.55 177.389 302.429 176.249 304.553C175.476 305.983 176.331 307.78 177.918 308.474C180.278 309.536 182.883 310.394 184.877 311.946C187.156 313.743 189.353 314.846 192.202 314.356ZM359.011 165.394C359.011 163.801 359.011 162.739 359.011 161.677C356.366 160.697 355.999 159.675 357.302 156.939C357.79 155.918 357.79 154.978 356.65 154.406C355.796 153.998 354.901 153.263 354.046 154.57C353.68 155.142 352.906 155.428 352.377 155.918C349.569 158.573 349.61 162.167 352.703 163.719C354.494 164.659 356.65 164.822 359.011 165.394Z" fill="#51A5E5"/>
<path class="inner-wave" d="M102.623 193.59C87.78 237.567 54.587 236.752 46.0236 268.542C46.0236 268.624 45.9828 268.705 45.9828 268.787C39.3361 304.123 66.3717 331.267 128.028 335.832C128.109 335.832 128.232 335.873 128.313 335.873C167.949 343.576 184.016 381.888 176.186 409.928C176.145 410.091 176.064 410.255 176.023 410.377C129.169 502.855 152.617 531.262 187.441 553.964C187.563 554.045 187.726 554.127 187.889 554.208C233.56 572.468 271.484 595.495 337.177 557.428C337.258 557.387 337.34 557.347 337.421 557.265C374.815 529.673 422.81 502.773 453.638 471.146C517.904 405.282 518.475 355.803 518.719 348.345C519.902 314.842 517.414 286.068 509.993 245.8C504.447 215.558 488.788 188.047 465.341 168.158C452.048 156.868 437.368 147.494 423.626 140.769C383.5 121.124 353.325 100.175 302.597 92.7164C259.658 87.3365 224.059 113.095 200.775 141.91C192.701 151.936 179.815 156.909 167.134 154.871C166.603 154.789 166.114 154.708 165.584 154.626C138.018 150.673 111.513 167.22 102.623 193.59Z" stroke="white" stroke-opacity="0.2" stroke-miterlimit="10"/>
<path class="front-wave" d="M66.6193 175.625C49.1397 227.401 12.51 226.464 2.40526 263.941C2.36452 264.023 2.3645 264.104 2.3645 264.226C-5.45853 305.859 20.2923 353.764 81.2875 360.282C81.4097 360.282 81.1653 360.241 81.2875 360.282C127.981 369.325 138.493 407.699 129.244 440.736C129.204 440.939 129.326 440.573 129.244 440.736C74.0756 549.705 125.496 567.384 166.485 594.066C166.648 594.189 166.811 594.27 167.015 594.352C220.798 615.86 268.714 645.435 346.089 600.584C346.17 600.543 346.293 600.462 346.374 600.421C390.419 567.914 443.673 539.887 480.018 502.655C555.722 425.052 556.374 366.759 556.659 358.001C558.085 318.528 555.111 284.635 546.391 237.218C539.872 201.615 521.415 169.189 493.83 145.725C478.143 132.445 460.908 121.406 444.692 113.462C397.428 90.324 361.939 65.6379 302.166 56.8389C251.601 50.5248 209.634 80.8325 182.213 114.806C172.678 126.62 157.562 132.486 142.568 130.082C141.957 130.001 141.346 129.879 140.775 129.797C108.301 125.072 77.0908 144.544 66.6193 175.625Z" stroke="white" stroke-opacity="0.15" stroke-miterlimit="10"/>
<path d="M335.4 307.237C343.642 307.237 351.661 307.237 359.792 307.237C359.847 307.845 359.903 308.343 359.903 308.896C359.903 320.456 359.903 332.015 359.903 343.575C359.903 344.681 359.626 345.069 358.465 344.958C356.805 344.792 355.146 344.626 353.487 344.792C350.002 345.124 347.126 343.796 344.361 341.916C343.033 340.976 341.706 340.091 340.268 339.427C336.617 337.712 332.967 337.989 329.372 339.704C328.21 340.257 327.049 340.754 325.777 341.142C325.002 341.363 324.117 341.418 323.343 341.363C321.573 341.252 320.356 340.201 320.301 338.929C320.246 337.602 321.352 336.551 323.066 336.219C323.509 336.164 324.007 336.274 324.449 336.108C325.002 335.887 325.5 335.555 326.053 335.223C325.721 334.726 325.445 334.062 324.947 333.841C322.347 332.569 319.527 332.292 316.761 333.232C314.77 333.896 312.889 334.892 310.954 335.721C308.796 336.717 306.639 337.602 304.206 336.606C302.049 335.721 300.777 334.117 300.721 331.794C300.666 329.471 301.661 327.591 303.708 326.595C305.146 325.931 306.861 325.821 308.465 325.434C309.018 325.268 309.571 325.046 310.124 324.825C309.847 324.272 309.737 323.608 309.35 323.221C306.418 320.622 302.934 319.626 299.062 319.847C295.577 320.013 292.314 321.064 289.327 322.889C288.996 323.055 288.664 323.166 288.111 323.387C288.111 318.575 288.111 313.929 288.111 309.228C288.111 297.613 288.111 285.998 288.111 274.383C288.111 273.221 288.498 273 289.549 273C312.502 273 335.456 273.055 358.409 273C359.571 273 359.903 273.387 359.903 274.493C359.847 281.794 359.847 289.04 359.903 296.341C359.903 297.613 359.294 297.723 358.299 297.723C343.752 297.723 329.15 297.723 314.604 297.723C312.613 297.723 312.613 297.723 312.613 299.715C312.613 306.02 312.613 312.325 312.613 318.631C312.613 320.456 312.613 320.456 314.493 320.456C320.965 320.456 327.381 320.456 333.852 320.511C334.958 320.511 335.4 320.179 335.345 319.018C335.29 315.644 335.345 312.27 335.345 308.951C335.4 308.343 335.4 307.845 335.4 307.237Z" fill="white"/>
<path d="M361.064 357.568V353.697H353.929H350.721H348.841V373H350.721H353.929H361.064V369.128H353.929V365.257H360.235V361.44H353.929V357.568H361.064Z" fill="white"/>
<path d="M342.535 353.697L337.447 365.533L332.358 353.697H327.657L335.953 373H338.94L347.237 353.697H342.535Z" fill="white"/>
<path d="M328.266 373H332.967L324.615 353.752H321.628L313.277 373H317.978L319.029 370.567H327.104L328.266 373ZM320.799 366.695L323.177 361.219L325.555 366.695H320.799Z" fill="white"/>
<path d="M313.996 353.697L308.631 365.533L304.648 356.96H302.27L298.288 365.533L292.923 353.697H288L296.739 373H299.892L303.487 365.035L307.082 373H310.179L318.973 353.697H313.996Z" fill="white"/>
</svg>
