<svg width="64" height="19" viewBox="0 0 64 19" fill="none" xmlns="http://www.w3.org/2000/svg">
<g clip-path="url(#clip0)">
<path d="M63.9969 14.5686C63.8083 15.3796 63.8447 15.2216 63.0882 15.2262H57.4842C56.8526 15.2262 56.6482 15.0194 56.6482 14.378C56.6482 11.1525 56.6482 7.92692 56.6482 4.70138C56.6482 4.04372 56.8367 3.84619 57.4705 3.84619H63.4131C63.7811 3.84619 63.8674 3.89035 63.8878 4.25752C63.9129 4.59865 63.9129 4.94122 63.8878 5.28235C63.8719 5.52868 63.7379 5.64719 63.4721 5.64487H58.9289V8.43352C59.0243 8.43352 59.1197 8.43352 59.2151 8.43352H62.8497C63.1814 8.43352 63.2768 8.49859 63.304 8.84252C63.3312 9.15175 63.3312 9.46284 63.304 9.77207C63.2745 10.116 63.1791 10.1834 62.8497 10.1834H58.9198V13.4229H63.3631C63.847 13.4229 63.8765 13.4508 63.956 13.9365C63.9673 13.9812 63.9825 14.0247 64.0014 14.0666L63.9969 14.5686Z" fill="white"/>
<path d="M18.5724 9.66007C18.568 11.741 18.3664 13.8167 17.9704 15.8578C17.8147 16.5216 17.4707 17.1234 16.9817 17.5877C16.4926 18.052 15.8804 18.3581 15.2218 18.4676C12.7282 18.9306 10.1903 19.0944 7.65955 18.9556C6.18502 18.8601 4.71634 18.6864 3.25943 18.435C1.75335 18.1794 0.760649 17.0105 0.499412 15.414C0.134186 13.2221 -0.0300845 11.0001 0.00874285 8.777C0.0423722 6.92069 0.228544 5.07057 0.565289 3.24618C0.711419 2.55614 1.05788 1.92736 1.5593 1.44219C2.06071 0.957029 2.69368 0.63812 3.37528 0.527246C5.83322 0.0733096 8.33416 -0.0888857 10.8285 0.0438797C12.3124 0.138483 13.7908 0.309114 15.2581 0.555132C16.7983 0.803787 17.8023 1.94946 18.0749 3.61568C18.4001 5.61342 18.5664 7.63484 18.5724 9.66007ZM1.96233 9.42769C1.94657 11.3034 2.08716 13.177 2.38258 15.0282C2.54614 15.9578 2.90506 16.397 3.80916 16.5294C4.9745 16.6991 6.14666 16.8501 7.32108 16.9222C9.74904 17.0912 12.1879 16.9758 14.5903 16.5782C15.6125 16.4016 16.0123 16.0484 16.1804 15.0654C16.3447 14.1433 16.4562 13.2122 16.5143 12.2768C16.5825 10.7732 16.6256 9.25572 16.5643 7.76379C16.4927 6.44046 16.3539 5.12182 16.1486 3.8132C16.0327 2.96964 15.617 2.56993 14.7856 2.45839C13.5567 2.29339 12.33 2.13072 11.1011 2.05868C8.67155 1.88878 6.23089 2.01908 3.83188 2.44677C2.92323 2.62106 2.54614 3.02309 2.38031 3.96193C2.09125 5.76862 1.95143 7.597 1.96233 9.42769Z" fill="white"/>
<path d="M50.9781 10.2992H49.1767C48.7474 10.2992 48.6429 10.2109 48.6293 9.76932C48.6236 9.47346 48.6388 9.17756 48.6747 8.88393C48.6811 8.8029 48.7186 8.72777 48.7791 8.67505C48.8396 8.62233 48.918 8.59632 48.9973 8.60274H52.5364C52.6189 8.59589 52.7018 8.60763 52.7793 8.63711C52.8568 8.66659 52.9271 8.7131 52.9851 8.77337C53.0432 8.83363 53.0876 8.90619 53.1152 8.98592C53.1429 9.06565 53.1531 9.15061 53.1452 9.23483C53.1589 9.69961 53.1452 10.183 53.1452 10.657V13.7548C53.1452 14.3613 53.0521 14.5077 52.5024 14.6843C50.9304 15.2258 49.3221 15.407 47.7024 15.005C46.7524 14.7968 45.8894 14.2911 45.2332 13.5581C44.5769 12.8252 44.1601 11.9014 44.0406 10.915C43.8399 9.76671 43.91 8.58601 44.245 7.47101C44.9265 5.33305 46.4144 4.17111 48.5611 3.85506C49.7253 3.66521 50.9176 3.77871 52.0276 4.18505C53.1271 4.5987 53.2429 4.77299 53.1634 6.06042C53.1656 6.09814 53.161 6.13596 53.1498 6.17196C53.0907 6.59956 52.9567 6.6716 52.591 6.4578C51.6996 5.90735 50.679 5.61423 49.6379 5.60959C47.8773 5.62585 46.5848 6.71575 46.2781 8.48887C46.0837 9.46046 46.1698 10.4689 46.5257 11.3914C46.6925 11.7904 46.9347 12.1519 47.2382 12.4551C47.5418 12.7583 47.9008 12.9972 48.2947 13.1582C48.6887 13.3193 49.1098 13.3992 49.534 13.3935C49.9582 13.3878 50.3772 13.2966 50.7668 13.125C50.8554 13.0855 50.9668 12.9693 50.969 12.8926C50.994 12.0397 50.9781 11.1962 50.9781 10.2992Z" fill="white"/>
<path d="M40.6854 15.2518C40.4038 15.2355 40.1244 15.2263 39.8427 15.2053C39.7467 15.2012 39.6549 15.1645 39.5816 15.1009C39.5084 15.0373 39.458 14.9506 39.4383 14.8544C39.2248 14.1735 38.984 13.5019 38.7796 12.821C38.7741 12.7876 38.7622 12.7556 38.7446 12.7269C38.727 12.6982 38.704 12.6733 38.677 12.6537C38.65 12.634 38.6195 12.62 38.5872 12.6125C38.5549 12.6049 38.5215 12.6039 38.4888 12.6096H34.7565C34.7243 12.6046 34.6914 12.6062 34.6598 12.6143C34.6282 12.6224 34.5985 12.6368 34.5723 12.6566C34.5461 12.6765 34.5241 12.7015 34.5073 12.7301C34.4906 12.7587 34.4796 12.7904 34.4748 12.8234C34.2749 13.4787 34.0523 14.1271 33.8592 14.7824C33.8365 14.9019 33.7737 15.0096 33.6816 15.0868C33.5895 15.164 33.474 15.206 33.3549 15.2053C32.9006 15.2216 32.4645 15.2332 32.0215 15.2053C31.6944 15.1867 31.5944 15.0218 31.6853 14.6871C31.7898 14.3037 31.9125 13.9272 32.051 13.5507C33.0854 10.5018 34.1212 7.45289 35.1586 4.40397C35.3085 3.96011 35.4176 3.86483 35.8651 3.85786H37.6074C37.7661 3.8495 37.9226 3.89811 38.0499 3.99528C38.1773 4.09245 38.2674 4.23207 38.3048 4.39002C39.4164 7.68683 40.5363 10.9805 41.6645 14.2711C41.714 14.4103 41.7557 14.5523 41.7895 14.6964C41.8667 15.0473 41.7758 15.1844 41.4192 15.2123C41.1761 15.2332 40.9285 15.2123 40.6832 15.2123L40.6854 15.2518ZM35.0518 10.8365H38.1844L36.642 6.09575C36.0922 7.60859 35.6016 9.11678 35.1132 10.611C35.0927 10.6784 35.0814 10.7388 35.0541 10.8434L35.0518 10.8365Z" fill="white"/>
<path d="M24.4775 11.273V14.796C24.4919 14.886 24.4708 14.9781 24.4189 15.0522C24.3669 15.1263 24.2883 15.1762 24.2004 15.191H24.189C23.6373 15.3125 23.0666 15.3125 22.5148 15.191C22.4299 15.1811 22.3523 15.1371 22.299 15.0687C22.2458 15.0003 22.2213 14.9131 22.2309 14.8262V4.61973C22.2198 4.51615 22.2315 4.41134 22.2652 4.31302C22.2989 4.21469 22.3538 4.12534 22.4257 4.05155C22.4976 3.97775 22.5848 3.92139 22.6808 3.88661C22.7768 3.85182 22.8792 3.83949 22.9805 3.85053C24.2526 3.85053 25.5247 3.82032 26.7945 3.88307C27.3817 3.91873 27.9593 4.05135 28.5051 4.2758C29.6613 4.74058 30.2633 5.68639 30.336 6.94128C30.3682 7.46871 30.3238 7.99812 30.2042 8.51222C29.8203 10.1018 28.7072 10.8826 27.2034 11.1545C26.746 11.223 26.2846 11.2603 25.8223 11.266C25.3884 11.2869 24.9523 11.273 24.4775 11.273ZM24.4911 9.49755H26.0426C27.2284 9.49755 27.8781 8.88404 27.9985 7.68028C28.0939 6.72981 27.6782 5.94899 26.9059 5.73287C26.1335 5.51675 25.3157 5.64456 24.4889 5.61668L24.4911 9.49755Z" fill="white"/>
<path d="M7.77215 9.54197C7.24286 9.0005 6.77037 8.52411 6.30696 8.04307C5.78903 7.49928 5.25293 6.96246 4.7509 6.41635C4.29658 5.90278 4.29658 5.30322 4.7509 4.85006C4.84796 4.7418 4.96492 4.65418 5.0951 4.5922C5.22529 4.53021 5.36613 4.49509 5.50959 4.48883C5.65306 4.48257 5.79632 4.5053 5.93119 4.55572C6.06605 4.60614 6.18989 4.68326 6.2956 4.78267L6.34103 4.82915C7.27012 5.74475 8.17196 6.68825 9.0806 7.6178C9.15428 7.708 9.22039 7.80439 9.27823 7.90596C9.40999 7.77814 9.48268 7.71075 9.55083 7.63871L12.17 4.94534C12.4858 4.62232 12.8515 4.40388 13.3058 4.50148C13.5063 4.5333 13.6943 4.62099 13.8492 4.75493C14.0041 4.88888 14.1199 5.06389 14.184 5.26077C14.2481 5.45765 14.2579 5.66878 14.2124 5.871C14.1669 6.07321 14.0678 6.25868 13.926 6.40706C13.4194 6.97641 12.8742 7.5109 12.3358 8.05701C11.8679 8.53573 11.3954 9.0098 10.9138 9.49549L11.141 9.74182L13.8942 12.563C14.1031 12.7723 14.2267 13.0548 14.2402 13.3536C14.2537 13.6524 14.156 13.9454 13.9669 14.1734C13.8746 14.286 13.7615 14.3788 13.6341 14.4466C13.5068 14.5144 13.3676 14.5558 13.2246 14.5685C13.0815 14.5813 12.9374 14.565 12.8005 14.5208C12.6636 14.4765 12.5366 14.4051 12.4267 14.3106L12.3631 14.2501C12.2518 14.1549 12.1496 14.048 12.0473 13.9434C11.2068 13.0836 10.3739 12.2229 9.54856 11.3616C9.49237 11.2983 9.44002 11.2315 9.39182 11.1617C8.8966 11.652 8.43092 12.1075 7.97205 12.556C7.40869 13.1231 6.86578 13.718 6.28878 14.2594C6.18695 14.3604 6.06666 14.4398 5.93481 14.4931C5.80295 14.5464 5.66211 14.5727 5.52034 14.5703C5.37857 14.5679 5.23865 14.537 5.10857 14.4793C4.97849 14.4215 4.86081 14.3382 4.76226 14.2339L4.72818 14.1944C4.52485 13.9723 4.41476 13.6776 4.42156 13.3734C4.42835 13.0692 4.5515 12.7799 4.76453 12.5677C5.67318 11.6242 6.58864 10.6822 7.51092 9.74182C7.59367 9.66949 7.68094 9.60273 7.77215 9.54197Z" fill="white"/>
</g>
<defs>
<clipPath id="clip0">
<rect width="64" height="19" fill="white"/>
</clipPath>
</defs>
</svg>
