<svg width="53" height="52" viewBox="0 0 53 52" fill="none" xmlns="http://www.w3.org/2000/svg">
<path d="M51.9896 36.041V42.5176H16.0145V52.0002H0.0857744C-0.000985996 51.6485 -0.038504 36.7703 0.0529461 36.041H51.9896Z" fill="white"/>
<path d="M51.9777 15.9851H36.0513V0.084479C36.3866 -0.0140057 51.4618 -0.0351096 51.9777 0.0680649V15.9851ZM46.4391 5.56445H41.5805V10.4629H46.4391V5.56445Z" fill="white"/>
<path d="M36.0726 18.0229H51.9216C52.0224 18.3653 52.0576 33.2928 51.9591 33.9681H36.1101C36.0093 33.6398 35.9741 18.7592 36.0726 18.0229ZM46.4275 28.4623C46.5213 27.7706 46.4885 23.8992 46.3947 23.5733H41.5948C41.5033 24.2369 41.5338 28.1176 41.6346 28.4623H46.4275Z" fill="white"/>
<path d="M18.0381 15.9804V0.0375977H33.9199C34.0137 0.382294 34.0466 7.77569 33.9574 8.49087H28.4939V5.62778C28.114 5.51054 24.1183 5.48943 23.5696 5.59261V10.484H33.9574V15.9804H18.0381Z" fill="white"/>
<path d="M10.4478 23.5638H5.57042V33.9047C5.20462 34.0289 0.67198 34.0594 0.0458984 33.9539V18.0861C0.360112 17.9876 15.3603 17.9572 15.9746 18.0627V33.9187C15.6487 34.0266 8.23655 34.0618 7.57764 33.9539V28.495H10.4478V23.5638Z" fill="white"/>
<path d="M0.0458984 15.9826V0.0327148H15.9746V5.52207H5.58449V10.4463H10.4665C10.5064 9.50836 10.4665 8.57041 10.49 7.63246C10.8581 7.52225 15.3439 7.49411 15.9301 7.5879C16.0286 7.93963 16.045 15.4831 15.9442 15.9755L0.0458984 15.9826Z" fill="white"/>
<path d="M26.0718 28.4903H28.3721C28.487 28.1128 28.5128 24.1499 28.4143 23.566H23.5909C23.5719 23.6864 23.5594 23.8078 23.5534 23.9295C23.5534 25.2286 23.5534 26.5253 23.5534 27.822C23.5576 28.0554 23.6275 28.283 23.755 28.4786C24.7164 30.1419 25.6755 31.8067 26.6322 33.4731C26.7166 33.6162 26.794 33.7639 26.8667 33.9187C26.4845 34.0195 18.7347 34.0476 18.0851 33.9632C17.996 33.6232 17.9726 18.6137 18.064 18.0181H33.9599V33.9445C33.8455 33.9675 33.7295 33.9824 33.6129 33.989C32.2529 33.989 30.8928 33.989 29.5328 33.989C29.4338 34.0005 29.3336 33.9816 29.2456 33.9346C29.1576 33.8877 29.086 33.8151 29.0404 33.7264C28.0884 32.0568 27.1246 30.3943 26.1656 28.7295C26.1295 28.6517 26.0982 28.5718 26.0718 28.4903Z" fill="white"/>
</svg>
