<svg width="24" height="11" viewBox="0 0 24 11" fill="none" xmlns="http://www.w3.org/2000/svg">
<path d="M12.9708 5.10344C12.9708 3.50441 12.9743 1.90886 12.9639 0.309827C12.9639 0.0982416 13.0783 0.0774317 13.224 0.0600886C15.5168 -0.227806 17.3863 0.514473 18.7807 2.38058C19.2316 2.98412 19.5195 3.67091 19.686 4.39932C19.7242 4.56581 19.7693 4.58662 19.9288 4.54153C21.2296 4.17733 22.6552 4.83636 23.2171 6.05384C23.8067 7.33029 23.3974 8.84954 22.2597 9.61611C21.7707 9.94562 21.2296 10.1052 20.6399 10.1052C18.6663 10.1017 16.6926 10.1052 14.7225 10.1052C14.1918 10.1052 13.6576 10.1017 13.1269 10.1086C12.9673 10.1121 12.9708 10.0254 12.9708 9.91441C12.9743 8.37781 12.9708 6.84122 12.9743 5.30462C12.9743 5.23525 12.9743 5.16935 12.9743 5.09998C12.9743 5.10344 12.9708 5.10344 12.9708 5.10344Z" fill="white"/>
<path d="M9.72426 6.0816C9.72426 5.0653 9.72079 4.049 9.72772 3.02923C9.72772 2.89395 9.752 2.75521 9.79016 2.62687C9.90809 2.24532 10.2099 2.00946 10.5463 2.01986C10.8793 2.0268 11.1811 2.28347 11.2817 2.65808C11.3129 2.77602 11.3302 2.90089 11.3302 3.02229C11.3337 5.02367 11.3337 7.02159 11.3372 9.02298C11.3372 9.30394 11.2817 9.56409 11.1117 9.79301C10.7926 10.2162 10.2272 10.2266 9.93931 9.77914C9.81791 9.58837 9.73813 9.33863 9.73466 9.11317C9.71732 8.1038 9.72772 7.09097 9.72426 6.0816C9.72772 6.0816 9.72772 6.0816 9.72426 6.0816Z" fill="white"/>
<path d="M8.09748 6.88286C8.09748 7.68064 8.09748 8.47842 8.09748 9.27967C8.09748 9.76181 7.7645 10.1017 7.29623 10.1017C6.83491 10.1052 6.47417 9.7514 6.4707 9.29355C6.4707 7.69105 6.4707 6.08508 6.47417 4.48259C6.47417 3.86517 7.04649 3.46628 7.60147 3.68827C7.90324 3.80968 8.09401 4.10451 8.09401 4.46871C8.09748 5.26996 8.09748 6.07815 8.09748 6.88286Z" fill="white"/>
<path d="M3.25186 7.67021C3.25186 7.13257 3.24493 6.59147 3.25186 6.05384C3.2588 5.60292 3.57098 5.26993 3.99068 5.25259C4.43119 5.23178 4.80233 5.53702 4.85436 5.981C4.87517 6.16136 4.87171 6.34867 4.87171 6.53251C4.87171 7.39966 4.87864 8.26681 4.86824 9.13396C4.86477 9.3178 4.83355 9.51898 4.75724 9.68547C4.59768 10.0219 4.20226 10.1745 3.83459 10.0844C3.49814 10.0011 3.26227 9.70281 3.25533 9.33167C3.2484 8.7767 3.25186 8.22519 3.25186 7.67021Z" fill="white"/>
<path d="M1.61117 8.48878C1.61117 8.74893 1.6077 9.0056 1.61117 9.26575C1.61811 9.73054 1.28859 10.0843 0.834201 10.0982C0.372876 10.1121 0.00867152 9.77216 0.00520291 9.30043C-0.0017343 8.76974 -0.0017343 8.23557 0.00520291 7.70487C0.00867152 7.22621 0.359004 6.87241 0.809923 6.87588C1.26084 6.87935 1.6077 7.23662 1.61117 7.70835C1.61464 7.97196 1.61117 8.23211 1.61117 8.48878Z" fill="white"/>
</svg>
