<svg width="12" height="7" viewBox="0 0 12 7" fill="none" xmlns="http://www.w3.org/2000/svg">
<path d="M7.06198 1.72124C7.06198 2.02824 7.04984 2.3176 7.0481 2.60342C7.04434 2.75933 7.06245 2.91498 7.10188 3.06569C7.12578 3.16189 7.17925 3.24781 7.25451 3.31093C7.27312 3.3258 7.29493 3.33596 7.31815 3.34056C7.34138 3.34516 7.36534 3.34408 7.38807 3.3374C7.4691 3.31108 7.54323 3.26644 7.60489 3.20684C7.75318 3.06779 7.88688 2.91347 8.00383 2.74634C8.4186 2.16226 8.7606 1.52813 9.02201 0.858469C9.06884 0.745549 9.11394 0.634394 9.1573 0.519711C9.18832 0.432059 9.25009 0.359165 9.33075 0.315044C9.38125 0.296138 9.43481 0.287157 9.4886 0.288579C9.51288 0.288579 9.5389 0.288579 9.56491 0.288579H11.2994C11.4174 0.288579 11.5353 0.288579 11.6464 0.288579C11.706 0.296395 11.7644 0.312421 11.8198 0.336217C11.8648 0.349568 11.9041 0.377837 11.9314 0.416525C11.9588 0.455212 11.9726 0.502093 11.9707 0.549705C11.9707 0.670835 11.9471 0.790765 11.9013 0.902578C11.785 1.18901 11.6385 1.46173 11.4642 1.71595C11.1399 2.22056 10.7704 2.69164 10.4235 3.17331C10.3073 3.33387 10.198 3.49972 10.0939 3.66734C10.0323 3.76009 10.0041 3.87167 10.0142 3.98316C10.029 4.09114 10.0776 4.19139 10.1529 4.26898C10.2795 4.4066 10.4079 4.54246 10.5432 4.67126C10.9057 5.00037 11.2458 5.35405 11.5614 5.72988C11.7085 5.90829 11.8353 6.10301 11.9395 6.31035C11.9651 6.36632 11.9826 6.42574 11.9915 6.48679C12.0072 6.5543 12.001 6.62516 11.9738 6.68877C11.9466 6.75238 11.8999 6.80532 11.8406 6.83966C11.7247 6.91417 11.5909 6.95505 11.4538 6.95788C10.9421 6.97199 10.4304 6.96846 9.9205 6.99846C9.59251 7.0147 9.2709 6.90229 9.02201 6.6844C8.83404 6.52723 8.65993 6.35366 8.50165 6.16568C8.32819 5.97336 8.16688 5.77928 7.98128 5.59579C7.90243 5.51703 7.8131 5.44992 7.7159 5.39641C7.65358 5.3576 7.57969 5.34268 7.50752 5.35432C7.43534 5.36596 7.36962 5.40341 7.32216 5.45993C7.23626 5.56524 7.17621 5.68982 7.14697 5.82339C7.09133 6.02698 7.06046 6.23674 7.05504 6.44797C7.05242 6.50055 7.04721 6.55296 7.03943 6.605C7.02968 6.67174 7.00176 6.73436 6.95885 6.78581C6.91594 6.83725 6.85974 6.87546 6.7966 6.89612C6.71253 6.93191 6.62235 6.95049 6.53121 6.95082C6.30225 6.95082 6.0733 6.95082 5.8374 6.95082C5.43326 6.94607 5.03321 6.86779 4.65618 6.71969C3.97535 6.4588 3.36617 6.0352 2.88002 5.48463C2.39758 4.94476 1.96772 4.35861 1.59646 3.73438C1.00842 2.76463 0.486823 1.75478 0.0353801 0.712026C0.00591505 0.643244 -0.00544266 0.567846 0.00242389 0.493245C0.00408945 0.465353 0.0132083 0.438453 0.0287972 0.415445C0.0443861 0.392437 0.0658537 0.374193 0.0908852 0.362682C0.176414 0.318752 0.270862 0.295791 0.366676 0.295636H2.0908C2.19305 0.30268 2.29107 0.339778 2.37298 0.402421C2.45489 0.465064 2.51715 0.550556 2.55219 0.648509C2.70111 1.04899 2.88031 1.43713 3.08816 1.80946C3.31319 2.22395 3.56648 2.6219 3.84615 3.00041C3.94103 3.14041 4.05828 3.26327 4.19306 3.36387C4.23599 3.40036 4.2887 3.4229 4.34437 3.42857C4.40004 3.43423 4.4561 3.42275 4.50528 3.39562C4.55905 3.36289 4.60103 3.31339 4.62496 3.25447C4.68796 3.10726 4.72664 2.95048 4.73944 2.79045C4.7773 2.41767 4.78484 2.04235 4.76199 1.66831C4.75776 1.44506 4.73514 1.22255 4.69434 1.00315C4.68393 0.948451 4.66485 0.89552 4.65445 0.840825C4.64193 0.78996 4.6187 0.742471 4.58635 0.701647C4.55401 0.660824 4.51332 0.627641 4.46712 0.6044C4.34806 0.52912 4.21309 0.483759 4.07338 0.472073C4.03348 0.472073 4.01961 0.4509 4.03695 0.415613C4.0518 0.380488 4.07168 0.347789 4.09593 0.318573C4.22278 0.178243 4.39406 0.0876955 4.57986 0.0627402C4.84905 0.0157497 5.12204 -0.0049288 5.39509 0.000987495C5.69864 0.000987495 6.00391 0.000987495 6.30919 0.0203955C6.44166 0.0289389 6.57297 0.0508061 6.7012 0.085677C6.80331 0.10632 6.89556 0.161484 6.96295 0.242205C7.03034 0.322925 7.06891 0.424457 7.07239 0.530297C7.08715 0.700412 7.09236 0.871244 7.088 1.04196C7.08453 1.27309 7.07065 1.50599 7.06198 1.72124Z" fill="#479BD6"/>
</svg>
