<svg width="6" height="12" viewBox="0 0 6 12" fill="none" xmlns="http://www.w3.org/2000/svg">
<path d="M6 0V2.09493H4.4C4.28107 2.08318 4.16249 2.12123 4.06755 2.20162C3.97261 2.28201 3.90819 2.39892 3.88696 2.52936C3.87959 2.59346 3.87959 2.65834 3.88696 2.72245C3.88696 3.19549 3.88696 3.68785 3.88696 4.17056H6V6.10137H3.86087V12H1.83478V6.13998H0V4.20917H1.82609C1.82609 4.1609 1.82609 4.12228 1.82609 4.08367C1.82609 3.62027 1.82609 3.11826 1.82609 2.69348C1.84866 2.20251 1.98343 1.72599 2.21771 1.30882C2.45199 0.891643 2.77806 0.547544 3.16522 0.30893C3.43269 0.141882 3.7291 0.0398683 4.03478 0.00965406H4.11304L6 0Z" fill="#479BD6"/>
</svg>
