<svg class="wave-svg" width="558" height="570" viewBox="0 0 558 570" fill="none" xmlns="http://www.w3.org/2000/svg">
<path class="inner-wave" d="M102.623 138.59C87.78 182.567 54.587 181.752 46.0236 213.542C46.0236 213.624 45.9828 213.705 45.9828 213.787C39.3361 249.123 66.3717 276.267 128.028 280.832C128.109 280.832 128.232 280.873 128.313 280.873C167.949 288.576 184.016 326.888 176.186 354.928C176.145 355.091 176.064 355.255 176.023 355.377C129.169 447.855 152.617 476.262 187.441 498.964C187.563 499.045 187.726 499.127 187.889 499.208C233.56 517.468 271.484 540.495 337.177 502.428C337.258 502.387 337.34 502.347 337.421 502.265C374.815 474.673 422.81 447.773 453.638 416.146C517.904 350.282 518.475 300.803 518.719 293.345C519.902 259.842 517.414 231.068 509.993 190.8C504.447 160.558 488.788 133.047 465.341 113.158C452.048 101.868 437.368 92.4938 423.626 85.7689C383.5 66.124 353.325 45.1749 302.597 37.7164C259.658 32.3365 224.059 58.0949 200.775 86.9101C192.701 96.9364 179.815 101.909 167.134 99.8709C166.603 99.7894 166.114 99.7079 165.584 99.6264C138.018 95.6729 111.513 112.22 102.623 138.59Z" stroke="white" stroke-opacity="0.2" stroke-miterlimit="10"/>
<path class="front-wave" d="M66.6193 120.625C49.1397 172.401 12.51 171.464 2.40526 208.941C2.36452 209.023 2.3645 209.104 2.3645 209.226C-5.45853 250.859 20.2923 298.764 81.2875 305.282C81.4097 305.282 81.1653 305.241 81.2875 305.282C127.981 314.325 138.493 352.699 129.244 385.736C129.204 385.939 129.326 385.573 129.244 385.736C74.0756 494.705 125.496 512.384 166.485 539.066C166.648 539.189 166.811 539.27 167.015 539.352C220.798 560.86 268.714 590.435 346.089 545.584C346.17 545.543 346.293 545.462 346.374 545.421C390.419 512.914 443.673 484.887 480.018 447.655C555.722 370.052 556.374 311.759 556.659 303.001C558.085 263.528 555.111 229.635 546.391 182.218C539.872 146.615 521.415 114.189 493.83 90.7251C478.143 77.4451 460.908 66.4056 444.692 58.4621C397.428 35.324 361.939 10.6379 302.166 1.83892C251.601 -4.47517 209.634 25.8325 182.213 59.8064C172.678 71.6198 157.562 77.4858 142.568 75.0824C141.957 75.0009 141.346 74.8787 140.775 74.7973C108.301 70.0719 77.0908 89.5437 66.6193 120.625Z" stroke="white" stroke-opacity="0.15" stroke-miterlimit="10"/>
</svg>
