<svg width="119" height="78" viewBox="0 0 119 78" fill="none" xmlns="http://www.w3.org/2000/svg">
<path d="M118.909 36.5813H82.4751V0.193327C83.2422 -0.0320516 117.729 -0.0803471 118.909 0.155764V36.5813ZM106.239 12.734H95.1239V23.944H106.239V12.734Z" fill="white"/>
<path d="M82.5233 41.2445H118.78C119.011 42.0279 119.091 76.1889 118.866 77.7344H82.6091C82.3785 76.9831 82.298 42.9295 82.5233 41.2445ZM106.212 65.1346C106.426 63.5516 106.351 54.6921 106.137 53.9462H95.156C94.9468 55.4648 95.0166 64.3458 95.2472 65.1346H106.212Z" fill="white"/>
<path d="M41.2671 36.5705V0.0859985H77.599C77.8136 0.874824 77.8887 17.7943 77.6848 19.431H65.1862V12.8789C64.3172 12.6106 55.1765 12.5623 53.9213 12.7984V23.9922H77.6848V36.5705H41.2671Z" fill="white"/>
<path d="M23.9031 53.9247H12.7455V77.5895C11.9087 77.8739 1.53967 77.9436 0.107422 77.7022V41.3893C0.826228 41.164 35.1412 41.0942 36.5466 41.3357V77.6217C35.801 77.8685 18.8447 77.949 17.3373 77.7022V65.2097H23.9031V53.9247Z" fill="white"/>
<path d="M0.107422 36.5759V0.0752563H36.5466V12.6374H12.7777V23.9064H23.946C24.0372 21.7599 23.946 19.6135 23.9997 17.467C24.8419 17.2148 35.1036 17.1504 36.4447 17.365C36.67 18.17 36.7075 35.4329 36.4769 36.5598L0.107422 36.5759Z" fill="white"/>
<path d="M59.6448 65.199H64.9071C65.1699 64.3351 65.229 55.2662 65.0037 53.9301H53.9694C53.926 54.2056 53.8974 54.4832 53.8836 54.7618C53.8836 57.7347 53.8836 60.7022 53.8836 63.6697C53.8932 64.2039 54.0531 64.7246 54.3449 65.1722C56.5443 68.9786 58.7382 72.7885 60.9268 76.6021C61.12 76.9294 61.297 77.2675 61.4633 77.6217C60.5889 77.8524 42.8601 77.9168 41.3742 77.7236C41.1704 76.9455 41.1168 42.5967 41.326 41.2337H77.6901V77.6807C77.4282 77.7335 77.1629 77.7675 76.8962 77.7827C73.7849 77.7827 70.6736 77.7827 67.5624 77.7827C67.3358 77.809 67.1066 77.7656 66.9053 77.6582C66.704 77.5508 66.5403 77.3846 66.4359 77.1816C64.258 73.3609 62.0533 69.5563 59.8594 65.7464C59.7768 65.5684 59.7051 65.3856 59.6448 65.199Z" fill="white"/>
</svg>
