<svg class="wave-svg" width="558" height="570" viewBox="0 0 558 570" fill="none" xmlns="http://www.w3.org/2000/svg">
<mask id="path-1-inside-1" fill="white">
<path d="M222.682 128.488C223.944 127.794 225.572 126.691 227.322 125.915C230.537 124.445 233.996 123.383 237.089 121.626C241.158 119.298 245.187 116.766 246.123 111.497C246.611 108.76 246.977 105.942 247.832 103.287C248.524 101.204 249.704 99.2431 250.925 97.4051C252.227 95.4037 253.611 93.3614 255.361 91.8093C256.866 90.5431 258.901 89.6445 260.814 89.1952C264.72 88.2966 268.586 87.3572 272.697 87.398C275.342 87.4389 278.028 85.9685 280.592 84.8656C281.243 84.5797 281.487 83.1502 281.69 82.2107C281.853 81.4347 281.731 80.536 281.731 79.7191C281.731 77.4727 282.748 76.2473 284.987 75.7572C287.306 75.2262 289.585 74.5318 291.905 74.1234C294.875 73.5515 297.358 75.0628 299.515 76.6966C302.323 78.8614 304.846 81.3938 307.45 83.7628C310.828 86.867 314.938 88.7459 319.008 90.7065C321.571 91.9318 324.094 93.1572 326.658 94.4234C330.768 96.5065 335.041 98.3854 339.721 97.2826C341.349 96.915 342.733 95.0361 343.954 93.6473C345.744 91.5642 348.308 90.0938 349.692 90.8699C351.075 91.6459 352.337 92.5853 353.72 93.3206C356.284 94.7093 358.726 96.3839 361.452 97.2008C364.912 98.2628 367.557 100.183 369.551 103.083C370.568 104.553 371.748 105.452 373.702 105.901C377.608 106.799 380.986 108.637 383.102 112.436C383.753 113.621 385.422 114.315 386.805 114.928C389.573 116.153 392.584 116.847 395.148 118.399C396.613 119.257 398.2 120.319 399.217 122.198C400.194 124.077 401.741 125.588 401.415 127.998C397.956 130.245 394.782 128.652 391.526 127.059C388.718 125.67 385.829 124.404 382.939 123.301C382.37 123.097 381.474 123.914 380.66 124.281C383.509 128.243 387.863 129.509 391.648 131.674C393.032 132.491 394.415 133.39 395.88 134.002C397.63 134.737 399.502 135.269 401.293 135.881C404.833 137.025 408.374 138.087 411.426 140.333C412.077 140.823 412.24 141.926 412.321 142.988C413.094 143.397 413.827 143.928 414.641 144.214C416.391 144.785 418.059 143.07 418.181 140.497C418.303 138.046 419.728 137.719 421.396 137.556C425.222 137.229 429.088 137.311 432.547 139.271C434.012 140.088 435.232 141.354 436.616 142.376C437.389 142.947 438.163 143.723 439.058 143.968C442.069 144.867 443.575 147.563 445.488 149.605C448.255 152.505 450.615 155.936 452.772 159.367C454.237 161.695 455.051 164.473 456.231 167.005C458.103 171.09 460.138 175.133 461.969 179.299C463.271 182.24 464.329 185.263 465.469 188.245C466.12 189.96 466.853 191.635 467.422 193.391C467.992 195.229 468.44 197.149 468.887 199.028C470.19 204.828 469.661 210.75 469.62 216.591C469.579 220.267 469.62 224.066 468.724 227.538C467.504 232.276 467.789 237.054 468.318 241.67C468.887 246.408 468.399 251.105 468.806 255.762C468.969 257.845 469.905 259.969 470.922 261.847C472.672 265.074 474.951 268.056 476.619 271.324C477.515 273.039 477.433 275.204 478.044 277.083C479.549 281.902 478.858 286.845 478.735 291.746C478.654 295.585 477.759 299.384 477.189 303.183C476.904 305.143 476.701 307.145 476.253 309.064C475.928 310.453 475.236 311.76 474.747 313.108C474.3 314.333 473.811 315.559 473.404 316.825C471.899 321.767 468.847 325.933 466.323 330.345C463.109 335.94 459.487 341.291 454.725 345.702C450.941 349.174 447.075 352.524 443.372 356.077C440.645 358.691 438.244 361.55 436.291 364.9C434.419 368.167 431.896 371.067 429.454 373.967C427.256 376.54 425.628 379.44 423.716 382.177C422.007 384.669 420.135 387.038 418.344 389.488C416.838 391.571 415.455 393.736 413.868 395.778C413.013 396.881 411.874 397.739 410.938 398.76C407.153 402.845 403.735 407.297 399.543 410.891C394.985 414.771 390.346 418.978 384.12 420.286C379.887 421.184 376.021 423.186 371.952 424.452C369.347 425.269 368.778 427.515 368.167 429.639C367.15 433.233 365.481 436.215 362.022 438.012C358.441 439.85 355.104 442.546 351.319 443.445C346.924 444.507 343.994 447.733 340.006 449.204C338.094 449.898 336.669 451.859 334.96 453.166C331.908 455.617 328.896 458.067 325.763 460.395C322.263 463.01 318.682 465.542 315.06 468.074C312.903 469.586 310.624 470.852 308.427 472.322C305.863 474.038 303.34 475.835 300.858 477.632C297.317 480.164 293.695 482.452 289.463 483.636C287.021 484.29 284.58 484.902 282.097 485.393C279.004 486.005 275.871 486.577 272.697 486.986C271.883 487.108 270.987 486.414 270.133 486.291C267.447 485.964 264.761 485.801 262.075 485.393C260.285 485.107 258.576 484.453 256.826 484.004C255.483 483.636 254.099 483.269 252.756 482.86C250.192 482.125 247.669 481.39 245.105 480.614C243.193 480.042 241.361 479.225 239.408 478.776C235.501 477.877 232.042 475.998 228.583 474.119C224.025 471.669 219.59 469.014 215.113 466.4C212.712 464.97 210.352 463.459 208.032 461.907C204.37 459.456 200.422 457.25 197.167 454.31C193.952 451.409 190.371 448.509 189.231 443.812C188.865 442.26 187.685 440.912 187.156 439.36C186.505 437.604 186.993 435.848 188.336 434.581C189.597 433.438 189.882 431.967 189.231 430.783C188.784 429.925 187.359 429.598 185.894 428.74C187.644 428.128 189.313 427.352 191.062 427.025C192.812 426.698 194.115 426.249 194.806 424.411C195.173 423.471 196.149 422.736 196.434 421.797C196.678 421.021 196.394 420.081 196.231 419.224C195.946 417.835 195.335 416.487 195.295 415.098C195.254 411.994 194.766 411.626 192.08 410.115C190.045 408.971 188.458 407.052 186.79 405.336C185.813 404.315 186.993 404.029 187.603 403.621C188.824 402.804 190.167 402.069 191.307 401.129C192.609 400.026 193.382 400.026 194.237 401.578C195.376 403.621 196.719 405.5 199.079 406.317C200.463 406.807 201.887 407.256 203.271 407.746C208.439 409.462 212.997 408.155 217.229 405.009C218.532 404.029 218.613 401.456 217.189 400.353C216.131 399.495 214.706 398.842 213.363 398.556C209.294 397.657 205.224 396.84 201.399 395.125C200.87 394.88 200.463 393.981 200.3 393.328C199.812 391 200.951 388.998 201.684 386.874C202.945 383.362 206.242 382.586 208.887 381.197C212.305 379.4 216.09 378.215 219.793 377.031C222.845 376.05 225.979 375.519 229.275 376.05C232.327 376.54 235.461 376.622 238.554 376.949C239.083 376.99 239.612 377.684 240.059 377.643C241.443 377.48 242.786 377.071 244.251 376.745C243.152 373.069 240.914 370.986 238.106 369.311C235.542 367.759 233.06 366.043 230.577 364.328C229.112 363.307 228.38 361.836 228.38 360.039C228.38 358.242 228.38 356.445 228.339 354.607C228.298 351.788 226.996 350.359 224.31 349.256C221.991 348.276 220.281 346.315 219.386 343.987C218.857 342.639 220.444 342.598 221.136 342.843C223.049 343.456 224.839 344.559 226.752 345.09C227.932 345.416 229.316 345.171 230.618 345.049C232.002 344.926 233.385 344.354 234.688 344.518C235.746 344.64 236.641 345.376 236.6 346.928C236.559 349.869 237.943 351.257 240.507 351.012C241.199 350.931 241.891 350.073 242.379 349.419C242.623 349.133 242.542 348.48 242.46 347.99C241.891 344.804 244.047 342.925 245.757 340.76C246.489 339.862 247.222 338.759 247.425 337.656C247.832 335.369 245.675 332.673 243.111 332.795C240.344 332.877 237.618 333.653 234.891 334.184C233.304 334.47 231.798 334.919 230.211 335.164C228.624 335.409 228.136 336.716 227.444 337.86C226.996 338.636 226.752 339.576 226.142 340.188C224.799 341.618 224.432 341.455 223.863 339.698C222.438 340.311 221.462 339.535 220.526 338.595C218.898 336.962 217.311 334.96 214.747 335.246C213.16 335.409 211.613 336.431 210.067 337.043C209.335 337.329 208.561 337.615 207.829 337.901C207.666 337.738 207.463 337.574 207.3 337.411C207.585 336.594 207.747 335.736 208.154 335.001C209.131 333.081 207.625 330.508 205.468 330.181C203.719 329.895 201.725 329.487 200.422 328.425C199.283 327.485 198.917 325.525 198.428 323.973C198.347 323.728 199.324 322.87 199.893 322.788C202.172 322.38 204.533 322.216 206.811 321.849C207.34 321.767 207.829 321.236 208.236 320.828C210.555 318.418 213.119 316.294 216.293 315.15C216.538 315.069 216.7 314.824 216.904 314.66C218.125 313.68 219.142 307.022 218.003 306.042C216.741 304.98 215.154 304.204 213.607 303.509C211.491 302.57 209.212 301.916 207.137 300.895C204.777 299.711 202.498 298.322 200.219 296.974C197.452 295.3 195.173 293.38 195.864 289.54C196.434 286.354 194.725 284.067 192.487 282.025C190.249 279.942 188.214 277.573 185.813 275.735C183.168 273.692 180.156 272.059 177.348 270.221C176.494 269.649 175.598 269.118 174.784 268.464C171.936 266.259 169.046 264.135 166.361 261.766C164.082 259.764 163.96 257.109 164.773 254.209C165.465 251.718 165.669 249.022 163.39 247.143C160.297 244.611 157.082 242.242 153.786 239.954C152.117 238.811 149.961 238.361 148.495 237.054C146.339 235.135 144.589 232.725 142.717 230.519C140.886 228.354 138.729 227.374 135.758 227.497C132.34 227.619 128.962 227.66 126.113 229.907C123.753 231.785 121.596 233.991 119.114 235.707C116.713 237.381 114.027 238.688 111.341 239.914C110.608 240.24 109.388 239.873 108.492 239.505C104.708 238.035 101.045 236.605 96.8128 236.687C93.4351 236.769 89.8133 235.543 88.0634 232.398C87.0053 230.478 86.8019 227.66 87.1681 225.414C87.5344 223.208 88.2262 220.839 90.1796 219.083C92.4992 217 95.0629 216.183 97.7895 217.735C99.4173 218.674 101.086 219.736 102.876 220.104C105.766 220.716 108.736 220.962 111.667 221.043C113.945 221.084 116.265 220.798 118.463 220.226C120.009 219.818 121.108 218.592 121.148 216.55C121.189 214.916 121.962 213.242 122.573 211.649C123.265 209.811 122.369 208.422 121.555 206.952C120.538 205.154 119.48 203.357 118.87 201.438C118.625 200.661 119.236 199.232 119.928 198.578C121.393 197.149 123.142 196.046 124.811 194.861C126.968 193.35 128.189 191.063 129.369 188.857C130.549 186.611 131.566 184.242 132.502 181.873C133.316 179.912 133.764 177.788 134.7 175.95C136.246 172.846 138.932 170.845 141.984 169.292C144.345 168.108 145.891 166.433 146.257 163.492C146.42 162.104 147.315 160.633 146.746 159.245C146.013 157.366 146.176 155.201 144.507 153.485C143.002 151.974 144.141 149.932 145.81 148.38C148.129 146.256 150.734 147.114 153.298 146.746C155.332 146.46 157.57 145.888 159.158 144.704C161.762 142.784 164.489 142.376 167.5 142.621C168.762 142.743 170.023 143.152 171.325 143.356C174.418 143.887 175.843 141.518 177.633 139.761C178.651 138.74 179.668 137.597 180.889 136.861C182.517 135.881 184.307 134.942 186.179 134.574C187.766 134.247 189.557 134.533 191.185 134.901C194.074 135.554 195.864 137.842 197.818 139.843C199.568 141.599 201.562 141.191 204.329 139.68C206.73 138.332 209.212 137.27 212.02 136.861C213.648 136.616 215.235 135.881 216.863 135.432C217.514 135.268 218.287 135.391 218.898 135.146C220.159 134.615 221.869 134.166 222.438 133.145C223.13 131.919 222.682 130.163 222.682 128.488ZM192.202 259.356C193.301 259.356 194.44 259.519 195.498 259.315C196.597 259.07 197.94 258.743 198.632 257.926C199.486 256.987 198.306 252.739 197.329 251.759C194.644 249.063 192.08 246.245 189.353 243.631C187.563 241.915 185.609 240.363 183.615 238.892C182.313 237.912 179.953 238.443 179.505 239.669C179.139 240.731 178.528 241.833 178.651 242.854C178.935 245.55 177.389 247.429 176.249 249.553C175.476 250.983 176.331 252.78 177.918 253.474C180.278 254.536 182.883 255.394 184.877 256.946C187.156 258.743 189.353 259.846 192.202 259.356ZM359.011 110.394C359.011 108.801 359.011 107.739 359.011 106.677C356.366 105.697 355.999 104.675 357.302 101.939C357.79 100.918 357.79 99.9783 356.65 99.4065C355.796 98.998 354.901 98.2628 354.046 99.5699C353.68 100.142 352.906 100.428 352.377 100.918C349.569 103.573 349.61 107.167 352.703 108.719C354.494 109.659 356.65 109.822 359.011 110.394Z"/>
</mask>
<path d="M222.682 128.488C223.944 127.794 225.572 126.691 227.322 125.915C230.537 124.445 233.996 123.383 237.089 121.626C241.158 119.298 245.187 116.766 246.123 111.497C246.611 108.76 246.977 105.942 247.832 103.287C248.524 101.204 249.704 99.2431 250.925 97.4051C252.227 95.4037 253.611 93.3614 255.361 91.8093C256.866 90.5431 258.901 89.6445 260.814 89.1952C264.72 88.2966 268.586 87.3572 272.697 87.398C275.342 87.4389 278.028 85.9685 280.592 84.8656C281.243 84.5797 281.487 83.1502 281.69 82.2107C281.853 81.4347 281.731 80.536 281.731 79.7191C281.731 77.4727 282.748 76.2473 284.987 75.7572C287.306 75.2262 289.585 74.5318 291.905 74.1234C294.875 73.5515 297.358 75.0628 299.515 76.6966C302.323 78.8614 304.846 81.3938 307.45 83.7628C310.828 86.867 314.938 88.7459 319.008 90.7065C321.571 91.9318 324.094 93.1572 326.658 94.4234C330.768 96.5065 335.041 98.3854 339.721 97.2826C341.349 96.915 342.733 95.0361 343.954 93.6473C345.744 91.5642 348.308 90.0938 349.692 90.8699C351.075 91.6459 352.337 92.5853 353.72 93.3206C356.284 94.7093 358.726 96.3839 361.452 97.2008C364.912 98.2628 367.557 100.183 369.551 103.083C370.568 104.553 371.748 105.452 373.702 105.901C377.608 106.799 380.986 108.637 383.102 112.436C383.753 113.621 385.422 114.315 386.805 114.928C389.573 116.153 392.584 116.847 395.148 118.399C396.613 119.257 398.2 120.319 399.217 122.198C400.194 124.077 401.741 125.588 401.415 127.998C397.956 130.245 394.782 128.652 391.526 127.059C388.718 125.67 385.829 124.404 382.939 123.301C382.37 123.097 381.474 123.914 380.66 124.281C383.509 128.243 387.863 129.509 391.648 131.674C393.032 132.491 394.415 133.39 395.88 134.002C397.63 134.737 399.502 135.269 401.293 135.881C404.833 137.025 408.374 138.087 411.426 140.333C412.077 140.823 412.24 141.926 412.321 142.988C413.094 143.397 413.827 143.928 414.641 144.214C416.391 144.785 418.059 143.07 418.181 140.497C418.303 138.046 419.728 137.719 421.396 137.556C425.222 137.229 429.088 137.311 432.547 139.271C434.012 140.088 435.232 141.354 436.616 142.376C437.389 142.947 438.163 143.723 439.058 143.968C442.069 144.867 443.575 147.563 445.488 149.605C448.255 152.505 450.615 155.936 452.772 159.367C454.237 161.695 455.051 164.473 456.231 167.005C458.103 171.09 460.138 175.133 461.969 179.299C463.271 182.24 464.329 185.263 465.469 188.245C466.12 189.96 466.853 191.635 467.422 193.391C467.992 195.229 468.44 197.149 468.887 199.028C470.19 204.828 469.661 210.75 469.62 216.591C469.579 220.267 469.62 224.066 468.724 227.538C467.504 232.276 467.789 237.054 468.318 241.67C468.887 246.408 468.399 251.105 468.806 255.762C468.969 257.845 469.905 259.969 470.922 261.847C472.672 265.074 474.951 268.056 476.619 271.324C477.515 273.039 477.433 275.204 478.044 277.083C479.549 281.902 478.858 286.845 478.735 291.746C478.654 295.585 477.759 299.384 477.189 303.183C476.904 305.143 476.701 307.145 476.253 309.064C475.928 310.453 475.236 311.76 474.747 313.108C474.3 314.333 473.811 315.559 473.404 316.825C471.899 321.767 468.847 325.933 466.323 330.345C463.109 335.94 459.487 341.291 454.725 345.702C450.941 349.174 447.075 352.524 443.372 356.077C440.645 358.691 438.244 361.55 436.291 364.9C434.419 368.167 431.896 371.067 429.454 373.967C427.256 376.54 425.628 379.44 423.716 382.177C422.007 384.669 420.135 387.038 418.344 389.488C416.838 391.571 415.455 393.736 413.868 395.778C413.013 396.881 411.874 397.739 410.938 398.76C407.153 402.845 403.735 407.297 399.543 410.891C394.985 414.771 390.346 418.978 384.12 420.286C379.887 421.184 376.021 423.186 371.952 424.452C369.347 425.269 368.778 427.515 368.167 429.639C367.15 433.233 365.481 436.215 362.022 438.012C358.441 439.85 355.104 442.546 351.319 443.445C346.924 444.507 343.994 447.733 340.006 449.204C338.094 449.898 336.669 451.859 334.96 453.166C331.908 455.617 328.896 458.067 325.763 460.395C322.263 463.01 318.682 465.542 315.06 468.074C312.903 469.586 310.624 470.852 308.427 472.322C305.863 474.038 303.34 475.835 300.858 477.632C297.317 480.164 293.695 482.452 289.463 483.636C287.021 484.29 284.58 484.902 282.097 485.393C279.004 486.005 275.871 486.577 272.697 486.986C271.883 487.108 270.987 486.414 270.133 486.291C267.447 485.964 264.761 485.801 262.075 485.393C260.285 485.107 258.576 484.453 256.826 484.004C255.483 483.636 254.099 483.269 252.756 482.86C250.192 482.125 247.669 481.39 245.105 480.614C243.193 480.042 241.361 479.225 239.408 478.776C235.501 477.877 232.042 475.998 228.583 474.119C224.025 471.669 219.59 469.014 215.113 466.4C212.712 464.97 210.352 463.459 208.032 461.907C204.37 459.456 200.422 457.25 197.167 454.31C193.952 451.409 190.371 448.509 189.231 443.812C188.865 442.26 187.685 440.912 187.156 439.36C186.505 437.604 186.993 435.848 188.336 434.581C189.597 433.438 189.882 431.967 189.231 430.783C188.784 429.925 187.359 429.598 185.894 428.74C187.644 428.128 189.313 427.352 191.062 427.025C192.812 426.698 194.115 426.249 194.806 424.411C195.173 423.471 196.149 422.736 196.434 421.797C196.678 421.021 196.394 420.081 196.231 419.224C195.946 417.835 195.335 416.487 195.295 415.098C195.254 411.994 194.766 411.626 192.08 410.115C190.045 408.971 188.458 407.052 186.79 405.336C185.813 404.315 186.993 404.029 187.603 403.621C188.824 402.804 190.167 402.069 191.307 401.129C192.609 400.026 193.382 400.026 194.237 401.578C195.376 403.621 196.719 405.5 199.079 406.317C200.463 406.807 201.887 407.256 203.271 407.746C208.439 409.462 212.997 408.155 217.229 405.009C218.532 404.029 218.613 401.456 217.189 400.353C216.131 399.495 214.706 398.842 213.363 398.556C209.294 397.657 205.224 396.84 201.399 395.125C200.87 394.88 200.463 393.981 200.3 393.328C199.812 391 200.951 388.998 201.684 386.874C202.945 383.362 206.242 382.586 208.887 381.197C212.305 379.4 216.09 378.215 219.793 377.031C222.845 376.05 225.979 375.519 229.275 376.05C232.327 376.54 235.461 376.622 238.554 376.949C239.083 376.99 239.612 377.684 240.059 377.643C241.443 377.48 242.786 377.071 244.251 376.745C243.152 373.069 240.914 370.986 238.106 369.311C235.542 367.759 233.06 366.043 230.577 364.328C229.112 363.307 228.38 361.836 228.38 360.039C228.38 358.242 228.38 356.445 228.339 354.607C228.298 351.788 226.996 350.359 224.31 349.256C221.991 348.276 220.281 346.315 219.386 343.987C218.857 342.639 220.444 342.598 221.136 342.843C223.049 343.456 224.839 344.559 226.752 345.09C227.932 345.416 229.316 345.171 230.618 345.049C232.002 344.926 233.385 344.354 234.688 344.518C235.746 344.64 236.641 345.376 236.6 346.928C236.559 349.869 237.943 351.257 240.507 351.012C241.199 350.931 241.891 350.073 242.379 349.419C242.623 349.133 242.542 348.48 242.46 347.99C241.891 344.804 244.047 342.925 245.757 340.76C246.489 339.862 247.222 338.759 247.425 337.656C247.832 335.369 245.675 332.673 243.111 332.795C240.344 332.877 237.618 333.653 234.891 334.184C233.304 334.47 231.798 334.919 230.211 335.164C228.624 335.409 228.136 336.716 227.444 337.86C226.996 338.636 226.752 339.576 226.142 340.188C224.799 341.618 224.432 341.455 223.863 339.698C222.438 340.311 221.462 339.535 220.526 338.595C218.898 336.962 217.311 334.96 214.747 335.246C213.16 335.409 211.613 336.431 210.067 337.043C209.335 337.329 208.561 337.615 207.829 337.901C207.666 337.738 207.463 337.574 207.3 337.411C207.585 336.594 207.747 335.736 208.154 335.001C209.131 333.081 207.625 330.508 205.468 330.181C203.719 329.895 201.725 329.487 200.422 328.425C199.283 327.485 198.917 325.525 198.428 323.973C198.347 323.728 199.324 322.87 199.893 322.788C202.172 322.38 204.533 322.216 206.811 321.849C207.34 321.767 207.829 321.236 208.236 320.828C210.555 318.418 213.119 316.294 216.293 315.15C216.538 315.069 216.7 314.824 216.904 314.66C218.125 313.68 219.142 307.022 218.003 306.042C216.741 304.98 215.154 304.204 213.607 303.509C211.491 302.57 209.212 301.916 207.137 300.895C204.777 299.711 202.498 298.322 200.219 296.974C197.452 295.3 195.173 293.38 195.864 289.54C196.434 286.354 194.725 284.067 192.487 282.025C190.249 279.942 188.214 277.573 185.813 275.735C183.168 273.692 180.156 272.059 177.348 270.221C176.494 269.649 175.598 269.118 174.784 268.464C171.936 266.259 169.046 264.135 166.361 261.766C164.082 259.764 163.96 257.109 164.773 254.209C165.465 251.718 165.669 249.022 163.39 247.143C160.297 244.611 157.082 242.242 153.786 239.954C152.117 238.811 149.961 238.361 148.495 237.054C146.339 235.135 144.589 232.725 142.717 230.519C140.886 228.354 138.729 227.374 135.758 227.497C132.34 227.619 128.962 227.66 126.113 229.907C123.753 231.785 121.596 233.991 119.114 235.707C116.713 237.381 114.027 238.688 111.341 239.914C110.608 240.24 109.388 239.873 108.492 239.505C104.708 238.035 101.045 236.605 96.8128 236.687C93.4351 236.769 89.8133 235.543 88.0634 232.398C87.0053 230.478 86.8019 227.66 87.1681 225.414C87.5344 223.208 88.2262 220.839 90.1796 219.083C92.4992 217 95.0629 216.183 97.7895 217.735C99.4173 218.674 101.086 219.736 102.876 220.104C105.766 220.716 108.736 220.962 111.667 221.043C113.945 221.084 116.265 220.798 118.463 220.226C120.009 219.818 121.108 218.592 121.148 216.55C121.189 214.916 121.962 213.242 122.573 211.649C123.265 209.811 122.369 208.422 121.555 206.952C120.538 205.154 119.48 203.357 118.87 201.438C118.625 200.661 119.236 199.232 119.928 198.578C121.393 197.149 123.142 196.046 124.811 194.861C126.968 193.35 128.189 191.063 129.369 188.857C130.549 186.611 131.566 184.242 132.502 181.873C133.316 179.912 133.764 177.788 134.7 175.95C136.246 172.846 138.932 170.845 141.984 169.292C144.345 168.108 145.891 166.433 146.257 163.492C146.42 162.104 147.315 160.633 146.746 159.245C146.013 157.366 146.176 155.201 144.507 153.485C143.002 151.974 144.141 149.932 145.81 148.38C148.129 146.256 150.734 147.114 153.298 146.746C155.332 146.46 157.57 145.888 159.158 144.704C161.762 142.784 164.489 142.376 167.5 142.621C168.762 142.743 170.023 143.152 171.325 143.356C174.418 143.887 175.843 141.518 177.633 139.761C178.651 138.74 179.668 137.597 180.889 136.861C182.517 135.881 184.307 134.942 186.179 134.574C187.766 134.247 189.557 134.533 191.185 134.901C194.074 135.554 195.864 137.842 197.818 139.843C199.568 141.599 201.562 141.191 204.329 139.68C206.73 138.332 209.212 137.27 212.02 136.861C213.648 136.616 215.235 135.881 216.863 135.432C217.514 135.268 218.287 135.391 218.898 135.146C220.159 134.615 221.869 134.166 222.438 133.145C223.13 131.919 222.682 130.163 222.682 128.488ZM192.202 259.356C193.301 259.356 194.44 259.519 195.498 259.315C196.597 259.07 197.94 258.743 198.632 257.926C199.486 256.987 198.306 252.739 197.329 251.759C194.644 249.063 192.08 246.245 189.353 243.631C187.563 241.915 185.609 240.363 183.615 238.892C182.313 237.912 179.953 238.443 179.505 239.669C179.139 240.731 178.528 241.833 178.651 242.854C178.935 245.55 177.389 247.429 176.249 249.553C175.476 250.983 176.331 252.78 177.918 253.474C180.278 254.536 182.883 255.394 184.877 256.946C187.156 258.743 189.353 259.846 192.202 259.356ZM359.011 110.394C359.011 108.801 359.011 107.739 359.011 106.677C356.366 105.697 355.999 104.675 357.302 101.939C357.79 100.918 357.79 99.9783 356.65 99.4065C355.796 98.998 354.901 98.2628 354.046 99.5699C353.68 100.142 352.906 100.428 352.377 100.918C349.569 103.573 349.61 107.167 352.703 108.719C354.494 109.659 356.65 109.822 359.011 110.394Z" stroke="white" stroke-opacity="0.6" stroke-width="2" mask="url(#path-1-inside-1)"/>
<path class="inner-wave" d="M102.623 138.59C87.78 182.567 54.587 181.752 46.0236 213.542C46.0236 213.624 45.9828 213.705 45.9828 213.787C39.3361 249.123 66.3717 276.267 128.028 280.832C128.109 280.832 128.232 280.873 128.313 280.873C167.949 288.576 184.016 326.888 176.186 354.928C176.145 355.091 176.064 355.255 176.023 355.377C129.169 447.855 152.617 476.262 187.441 498.964C187.563 499.045 187.726 499.127 187.889 499.208C233.56 517.468 271.484 540.495 337.177 502.428C337.258 502.387 337.34 502.347 337.421 502.265C374.815 474.673 422.81 447.773 453.638 416.146C517.904 350.282 518.475 300.803 518.719 293.345C519.902 259.842 517.414 231.068 509.993 190.8C504.447 160.558 488.788 133.047 465.341 113.158C452.048 101.868 437.368 92.4938 423.626 85.7689C383.5 66.124 353.325 45.1749 302.597 37.7164C259.658 32.3365 224.059 58.0949 200.775 86.9101C192.701 96.9364 179.815 101.909 167.134 99.8709C166.603 99.7894 166.114 99.7079 165.584 99.6264C138.018 95.6729 111.513 112.22 102.623 138.59Z" stroke="white" stroke-opacity="0.2" stroke-miterlimit="10"/>
<path class="front-wave" d="M66.6193 120.625C49.1397 172.401 12.51 171.464 2.40526 208.941C2.36452 209.023 2.3645 209.104 2.3645 209.226C-5.45853 250.859 20.2923 298.764 81.2875 305.282C81.4097 305.282 81.1653 305.241 81.2875 305.282C127.981 314.325 138.493 352.699 129.244 385.736C129.204 385.939 129.326 385.573 129.244 385.736C74.0756 494.705 125.496 512.384 166.485 539.066C166.648 539.189 166.811 539.27 167.015 539.352C220.798 560.86 268.714 590.435 346.089 545.584C346.17 545.543 346.293 545.462 346.374 545.421C390.419 512.914 443.673 484.887 480.018 447.655C555.722 370.052 556.374 311.759 556.659 303.001C558.085 263.528 555.111 229.635 546.391 182.218C539.872 146.615 521.415 114.189 493.83 90.7251C478.143 77.4451 460.908 66.4056 444.692 58.4621C397.428 35.324 361.939 10.6379 302.166 1.83892C251.601 -4.47517 209.634 25.8325 182.213 59.8064C172.678 71.6198 157.562 77.4858 142.568 75.0824C141.957 75.0009 141.346 74.8787 140.775 74.7973C108.301 70.0719 77.0908 89.5437 66.6193 120.625Z" stroke="white" stroke-opacity="0.15" stroke-miterlimit="10"/>
</svg>
