<svg class="wave-svg" width="778" height="570" viewBox="0 0 778 570" fill="none" xmlns="http://www.w3.org/2000/svg">
<path class="inner-wave" d="M172.623 138.59C157.78 182.567 124.587 181.752 116.024 213.542C116.024 213.624 115.983 213.705 115.983 213.787C109.336 249.123 136.372 276.267 198.028 280.832C198.109 280.832 198.232 280.873 198.313 280.873C237.949 288.576 254.016 326.888 246.186 354.928C246.145 355.091 246.064 355.255 246.023 355.377C199.169 447.855 222.617 476.262 257.441 498.964C257.563 499.045 257.726 499.127 257.889 499.208C303.56 517.468 341.484 540.495 407.177 502.428C407.258 502.387 407.34 502.347 407.421 502.265C444.815 474.673 492.81 447.773 523.638 416.146C587.904 350.282 588.475 300.803 588.719 293.345C589.902 259.842 587.414 231.068 579.993 190.8C574.447 160.558 558.788 133.047 535.341 113.158C522.048 101.868 507.368 92.4938 493.626 85.7689C453.5 66.124 423.325 45.1749 372.597 37.7164C329.658 32.3365 294.059 58.0949 270.775 86.9101C262.701 96.9364 249.815 101.909 237.134 99.8709C236.603 99.7894 236.114 99.7079 235.584 99.6264C208.018 95.6729 181.513 112.22 172.623 138.59Z" stroke="white" stroke-opacity="0.2" stroke-miterlimit="10"/>
<path class="front-wave" d="M136.619 120.625C119.14 172.401 82.51 171.464 72.4053 208.941C72.3645 209.023 72.3645 209.104 72.3645 209.226C64.5415 250.859 90.2923 298.764 151.287 305.282C151.41 305.282 151.165 305.241 151.287 305.282C197.981 314.325 208.493 352.699 199.244 385.736C199.204 385.939 199.326 385.573 199.244 385.736C144.076 494.705 195.496 512.384 236.485 539.066C236.648 539.189 236.811 539.27 237.015 539.352C290.798 560.86 338.714 590.435 416.089 545.584C416.17 545.543 416.293 545.462 416.374 545.421C460.419 512.914 513.673 484.887 550.018 447.655C625.722 370.052 626.374 311.759 626.659 303.001C628.085 263.528 625.111 229.635 616.391 182.218C609.872 146.615 591.415 114.189 563.83 90.7251C548.143 77.4451 530.908 66.4056 514.692 58.4621C467.428 35.324 431.939 10.6379 372.166 1.83892C321.601 -4.47517 279.634 25.8325 252.213 59.8064C242.678 71.6198 227.562 77.4858 212.568 75.0824C211.957 75.0009 211.346 74.8787 210.775 74.7973C178.301 70.0719 147.091 89.5437 136.619 120.625Z" stroke="white" stroke-opacity="0.15" stroke-miterlimit="10"/>
<path class="wave-svg__bg" d="M292.682 128.488C293.944 127.794 295.572 126.691 297.322 125.915C300.537 124.445 303.996 123.383 307.089 121.626C311.158 119.298 315.187 116.766 316.123 111.497C316.611 108.76 316.977 105.942 317.832 103.287C318.524 101.204 319.704 99.2431 320.925 97.4051C322.227 95.4037 323.611 93.3614 325.361 91.8093C326.866 90.5431 328.901 89.6445 330.814 89.1952C334.72 88.2966 338.586 87.3572 342.697 87.398C345.342 87.4389 348.028 85.9685 350.592 84.8656C351.243 84.5797 351.487 83.1502 351.69 82.2107C351.853 81.4347 351.731 80.536 351.731 79.7191C351.731 77.4727 352.748 76.2473 354.987 75.7572C357.306 75.2262 359.585 74.5318 361.905 74.1234C364.875 73.5515 367.358 75.0628 369.515 76.6966C372.323 78.8614 374.846 81.3938 377.45 83.7628C380.828 86.867 384.938 88.7459 389.008 90.7065C391.571 91.9318 394.094 93.1572 396.658 94.4234C400.768 96.5065 405.041 98.3854 409.721 97.2826C411.349 96.915 412.733 95.0361 413.954 93.6473C415.744 91.5642 418.308 90.0938 419.692 90.8699C421.075 91.6459 422.337 92.5853 423.72 93.3206C426.284 94.7093 428.726 96.3839 431.452 97.2008C434.912 98.2628 437.557 100.183 439.551 103.083C440.568 104.553 441.748 105.452 443.702 105.901C447.608 106.799 450.986 108.637 453.102 112.436C453.753 113.621 455.422 114.315 456.805 114.928C459.573 116.153 462.584 116.847 465.148 118.399C466.613 119.257 468.2 120.319 469.217 122.198C470.194 124.077 471.741 125.588 471.415 127.998C467.956 130.245 464.782 128.652 461.526 127.059C458.718 125.67 455.829 124.404 452.939 123.301C452.37 123.097 451.474 123.914 450.66 124.281C453.509 128.243 457.864 129.509 461.648 131.674C463.032 132.491 464.415 133.39 465.88 134.002C467.63 134.737 469.502 135.268 471.293 135.881C474.833 137.025 478.374 138.087 481.426 140.333C482.077 140.823 482.24 141.926 482.321 142.988C483.094 143.397 483.827 143.928 484.641 144.214C486.391 144.785 488.059 143.07 488.181 140.497C488.303 138.046 489.728 137.719 491.396 137.556C495.222 137.229 499.088 137.311 502.547 139.271C504.012 140.088 505.232 141.354 506.616 142.376C507.389 142.947 508.163 143.723 509.058 143.968C512.069 144.867 513.575 147.563 515.488 149.605C518.255 152.505 520.615 155.936 522.772 159.367C524.237 161.695 525.051 164.473 526.231 167.005C528.103 171.09 530.138 175.133 531.969 179.299C533.271 182.24 534.329 185.263 535.469 188.245C536.12 189.96 536.853 191.635 537.422 193.391C537.992 195.229 538.44 197.149 538.887 199.028C540.19 204.828 539.661 210.75 539.62 216.591C539.579 220.267 539.62 224.066 538.724 227.538C537.504 232.276 537.789 237.054 538.318 241.67C538.887 246.408 538.399 251.105 538.806 255.762C538.969 257.845 539.905 259.969 540.922 261.847C542.672 265.074 544.951 268.056 546.619 271.323C547.515 273.039 547.433 275.204 548.044 277.083C549.549 281.902 548.858 286.845 548.735 291.746C548.654 295.585 547.759 299.384 547.189 303.183C546.904 305.143 546.701 307.145 546.253 309.064C545.928 310.453 545.236 311.76 544.747 313.108C544.3 314.333 543.811 315.559 543.404 316.825C541.899 321.767 538.847 325.933 536.323 330.345C533.109 335.94 529.487 341.291 524.725 345.702C520.941 349.174 517.075 352.524 513.372 356.077C510.645 358.691 508.244 361.55 506.291 364.9C504.419 368.167 501.896 371.067 499.454 373.967C497.256 376.54 495.628 379.44 493.716 382.177C492.007 384.669 490.135 387.038 488.344 389.488C486.838 391.571 485.455 393.736 483.868 395.778C483.013 396.881 481.874 397.739 480.938 398.76C477.153 402.845 473.735 407.297 469.543 410.891C464.985 414.771 460.346 418.978 454.12 420.286C449.887 421.184 446.021 423.186 441.952 424.452C439.347 425.269 438.778 427.515 438.167 429.639C437.15 433.233 435.481 436.215 432.022 438.012C428.441 439.85 425.104 442.546 421.319 443.445C416.924 444.507 413.994 447.733 410.006 449.204C408.094 449.898 406.669 451.859 404.96 453.166C401.908 455.617 398.896 458.067 395.763 460.395C392.263 463.01 388.682 465.542 385.06 468.074C382.903 469.586 380.624 470.852 378.427 472.322C375.863 474.038 373.34 475.835 370.858 477.632C367.317 480.164 363.695 482.452 359.463 483.636C357.021 484.29 354.58 484.902 352.097 485.393C349.004 486.005 345.871 486.577 342.697 486.986C341.883 487.108 340.987 486.414 340.133 486.291C337.447 485.964 334.761 485.801 332.075 485.393C330.285 485.107 328.576 484.453 326.826 484.004C325.483 483.636 324.099 483.269 322.756 482.86C320.192 482.125 317.669 481.39 315.105 480.614C313.193 480.042 311.361 479.225 309.408 478.776C305.501 477.877 302.042 475.998 298.583 474.119C294.025 471.669 289.59 469.014 285.113 466.4C282.712 464.97 280.352 463.459 278.032 461.907C274.37 459.456 270.422 457.25 267.167 454.309C263.952 451.409 260.371 448.509 259.231 443.812C258.865 442.26 257.685 440.912 257.156 439.36C256.505 437.604 256.993 435.847 258.336 434.581C259.597 433.438 259.882 431.967 259.231 430.783C258.784 429.925 257.359 429.598 255.894 428.74C257.644 428.128 259.313 427.352 261.062 427.025C262.812 426.698 264.115 426.249 264.806 424.411C265.173 423.471 266.149 422.736 266.434 421.797C266.678 421.021 266.394 420.081 266.231 419.224C265.946 417.835 265.335 416.487 265.295 415.098C265.254 411.994 264.766 411.626 262.08 410.115C260.045 408.971 258.458 407.052 256.79 405.336C255.813 404.315 256.993 404.029 257.603 403.621C258.824 402.804 260.167 402.069 261.307 401.129C262.609 400.026 263.382 400.026 264.237 401.578C265.376 403.621 266.719 405.5 269.079 406.317C270.463 406.807 271.887 407.256 273.271 407.746C278.439 409.462 282.997 408.155 287.229 405.009C288.532 404.029 288.613 401.456 287.189 400.353C286.131 399.495 284.706 398.842 283.363 398.556C279.294 397.657 275.224 396.84 271.399 395.125C270.87 394.88 270.463 393.981 270.3 393.328C269.812 391 270.951 388.998 271.684 386.874C272.945 383.362 276.242 382.586 278.887 381.197C282.305 379.4 286.09 378.215 289.793 377.031C292.845 376.05 295.979 375.519 299.275 376.05C302.327 376.54 305.461 376.622 308.554 376.949C309.083 376.99 309.612 377.684 310.059 377.643C311.443 377.48 312.786 377.071 314.251 376.745C313.152 373.069 310.914 370.986 308.106 369.311C305.542 367.759 303.06 366.043 300.577 364.328C299.112 363.307 298.38 361.836 298.38 360.039C298.38 358.242 298.38 356.445 298.339 354.607C298.298 351.788 296.996 350.359 294.31 349.256C291.991 348.276 290.282 346.315 289.386 343.987C288.857 342.639 290.444 342.598 291.136 342.843C293.049 343.456 294.839 344.559 296.752 345.09C297.932 345.416 299.316 345.171 300.618 345.049C302.002 344.926 303.385 344.354 304.688 344.518C305.746 344.64 306.641 345.376 306.6 346.928C306.559 349.869 307.943 351.257 310.507 351.012C311.199 350.931 311.891 350.073 312.379 349.419C312.623 349.133 312.542 348.48 312.46 347.99C311.891 344.804 314.047 342.925 315.757 340.76C316.489 339.862 317.222 338.759 317.425 337.656C317.832 335.369 315.675 332.673 313.111 332.795C310.344 332.877 307.618 333.653 304.891 334.184C303.304 334.47 301.798 334.919 300.211 335.164C298.624 335.409 298.136 336.716 297.444 337.86C296.996 338.636 296.752 339.576 296.142 340.188C294.799 341.618 294.432 341.455 293.863 339.698C292.438 340.311 291.462 339.535 290.526 338.595C288.898 336.962 287.311 334.96 284.747 335.246C283.16 335.409 281.613 336.431 280.067 337.043C279.335 337.329 278.561 337.615 277.829 337.901C277.666 337.738 277.463 337.574 277.3 337.411C277.585 336.594 277.747 335.736 278.154 335.001C279.131 333.081 277.625 330.508 275.468 330.181C273.719 329.895 271.725 329.487 270.422 328.425C269.283 327.485 268.917 325.525 268.428 323.973C268.347 323.728 269.324 322.87 269.893 322.788C272.172 322.38 274.533 322.216 276.811 321.849C277.34 321.767 277.829 321.236 278.236 320.828C280.555 318.418 283.119 316.294 286.293 315.15C286.538 315.069 286.7 314.823 286.904 314.66C288.125 313.68 289.142 307.022 288.003 306.042C286.741 304.98 285.154 304.204 283.607 303.509C281.491 302.57 279.212 301.916 277.137 300.895C274.777 299.711 272.498 298.322 270.219 296.974C267.452 295.3 265.173 293.38 265.864 289.54C266.434 286.354 264.725 284.067 262.487 282.025C260.249 279.942 258.214 277.573 255.813 275.735C253.168 273.692 250.156 272.059 247.348 270.221C246.494 269.649 245.598 269.118 244.784 268.464C241.936 266.259 239.046 264.135 236.361 261.766C234.082 259.764 233.96 257.109 234.773 254.209C235.465 251.718 235.669 249.022 233.39 247.143C230.297 244.611 227.082 242.242 223.786 239.954C222.117 238.811 219.961 238.361 218.495 237.054C216.339 235.135 214.589 232.725 212.717 230.519C210.886 228.354 208.729 227.374 205.758 227.497C202.34 227.619 198.962 227.66 196.113 229.907C193.753 231.785 191.596 233.991 189.114 235.707C186.713 237.381 184.027 238.688 181.341 239.914C180.608 240.24 179.388 239.873 178.492 239.505C174.708 238.035 171.045 236.605 166.813 236.687C163.435 236.769 159.813 235.543 158.063 232.398C157.005 230.478 156.802 227.66 157.168 225.414C157.534 223.208 158.226 220.839 160.18 219.083C162.499 217 165.063 216.183 167.789 217.735C169.417 218.674 171.086 219.736 172.876 220.104C175.766 220.716 178.736 220.962 181.667 221.043C183.945 221.084 186.265 220.798 188.463 220.226C190.009 219.818 191.108 218.592 191.148 216.55C191.189 214.916 191.962 213.242 192.573 211.649C193.265 209.811 192.369 208.422 191.555 206.952C190.538 205.154 189.48 203.357 188.87 201.438C188.625 200.661 189.236 199.232 189.928 198.578C191.393 197.149 193.142 196.046 194.811 194.861C196.968 193.35 198.189 191.063 199.369 188.857C200.549 186.611 201.566 184.242 202.502 181.873C203.316 179.912 203.764 177.788 204.7 175.95C206.246 172.846 208.932 170.845 211.984 169.292C214.345 168.108 215.891 166.433 216.257 163.492C216.42 162.104 217.315 160.633 216.746 159.245C216.013 157.366 216.176 155.201 214.507 153.485C213.002 151.974 214.141 149.932 215.81 148.38C218.129 146.256 220.734 147.114 223.298 146.746C225.332 146.46 227.57 145.888 229.158 144.704C231.762 142.784 234.489 142.376 237.5 142.621C238.762 142.743 240.023 143.152 241.325 143.356C244.418 143.887 245.843 141.518 247.633 139.761C248.651 138.74 249.668 137.597 250.889 136.861C252.517 135.881 254.307 134.942 256.179 134.574C257.766 134.247 259.557 134.533 261.185 134.901C264.074 135.554 265.864 137.842 267.818 139.843C269.568 141.599 271.562 141.191 274.329 139.68C276.73 138.332 279.212 137.27 282.02 136.861C283.648 136.616 285.235 135.881 286.863 135.432C287.514 135.268 288.287 135.391 288.898 135.146C290.159 134.615 291.869 134.166 292.438 133.145C293.13 131.919 292.682 130.163 292.682 128.488ZM262.202 259.356C263.301 259.356 264.44 259.519 265.498 259.315C266.597 259.07 267.94 258.743 268.632 257.926C269.486 256.987 268.306 252.739 267.329 251.759C264.644 249.063 262.08 246.245 259.353 243.631C257.563 241.915 255.609 240.363 253.615 238.892C252.313 237.912 249.953 238.443 249.505 239.669C249.139 240.731 248.528 241.833 248.651 242.854C248.935 245.55 247.389 247.429 246.249 249.553C245.476 250.983 246.331 252.78 247.918 253.474C250.278 254.536 252.883 255.394 254.877 256.946C257.156 258.743 259.353 259.846 262.202 259.356ZM429.011 110.394C429.011 108.801 429.011 107.739 429.011 106.677C426.366 105.697 425.999 104.675 427.302 101.939C427.79 100.918 427.79 99.9783 426.65 99.4065C425.796 98.998 424.901 98.2628 424.046 99.5699C423.68 100.142 422.906 100.428 422.377 100.918C419.57 103.573 419.61 107.167 422.703 108.719C424.494 109.659 426.65 109.822 429.011 110.394Z" fill="#57ABF0" fill-opacity="0.6"/>

<path d="M13 57.3916C13 60.2702 10.0899 61 6.5 61C2.91015 61 0 57.8646 0 54.986C0 52.1075 2.91015 52.1795 6.5 52.1795C10.0899 52.1795 13 50.5038 13 57.3916Z" fill="white" fill-opacity="0.4"/>
<path d="M772.929 422.958C776.838 428.808 771.874 434.272 764.527 439.182C757.18 444.091 746.965 441.699 743.056 435.849C739.146 429.999 745.2 426.165 752.547 421.255C759.894 416.345 763.573 408.959 772.929 422.958Z" fill="white" fill-opacity="0.4"/>
<path d="M405.4 252.237C413.642 252.237 421.661 252.237 429.792 252.237C429.847 252.845 429.903 253.343 429.903 253.896C429.903 265.456 429.903 277.015 429.903 288.575C429.903 289.681 429.626 290.069 428.465 289.958C426.805 289.792 425.146 289.626 423.487 289.792C420.002 290.124 417.126 288.796 414.361 286.916C413.033 285.976 411.706 285.091 410.268 284.427C406.617 282.712 402.967 282.989 399.372 284.704C398.21 285.257 397.049 285.754 395.777 286.142C395.002 286.363 394.117 286.418 393.343 286.363C391.573 286.252 390.356 285.201 390.301 283.929C390.246 282.602 391.352 281.551 393.066 281.219C393.509 281.164 394.007 281.274 394.449 281.108C395.002 280.887 395.5 280.555 396.053 280.223C395.721 279.726 395.445 279.062 394.947 278.841C392.347 277.569 389.527 277.292 386.761 278.232C384.77 278.896 382.889 279.892 380.954 280.721C378.796 281.717 376.639 282.602 374.206 281.606C372.049 280.721 370.777 279.117 370.721 276.794C370.666 274.471 371.661 272.591 373.708 271.595C375.146 270.931 376.861 270.821 378.465 270.434C379.018 270.268 379.571 270.046 380.124 269.825C379.847 269.272 379.737 268.608 379.35 268.221C376.418 265.622 372.934 264.626 369.062 264.847C365.577 265.013 362.314 266.064 359.327 267.889C358.996 268.055 358.664 268.166 358.111 268.387C358.111 263.575 358.111 258.929 358.111 254.228C358.111 242.613 358.111 230.998 358.111 219.383C358.111 218.221 358.498 218 359.549 218C382.502 218 405.456 218.055 428.409 218C429.571 218 429.903 218.387 429.903 219.493C429.847 226.794 429.847 234.04 429.903 241.341C429.903 242.613 429.294 242.723 428.299 242.723C413.752 242.723 399.15 242.723 384.604 242.723C382.613 242.723 382.613 242.723 382.613 244.715C382.613 251.02 382.613 257.325 382.613 263.631C382.613 265.456 382.613 265.456 384.493 265.456C390.965 265.456 397.381 265.456 403.852 265.511C404.958 265.511 405.4 265.179 405.345 264.018C405.29 260.644 405.345 257.27 405.345 253.951C405.4 253.343 405.4 252.845 405.4 252.237Z" fill="white"/>
<path d="M431.064 302.569V298.697H423.929H420.721H418.841V318H420.721H423.929H431.064V314.128H423.929V310.257H430.235V306.44H423.929V302.569H431.064Z" fill="white"/>
<path d="M412.535 298.697L407.447 310.533L402.358 298.697H397.657L405.953 318H408.94L417.237 298.697H412.535Z" fill="white"/>
<path d="M398.266 318H402.967L394.615 298.752H391.628L383.277 318H387.978L389.029 315.566H397.104L398.266 318ZM390.799 311.695L393.177 306.219L395.555 311.695H390.799Z" fill="white"/>
<path d="M383.996 298.697L378.631 310.533L374.648 301.96H372.27L368.288 310.533L362.923 298.697H358L366.739 318H369.892L373.487 310.035L377.082 318H380.179L388.973 298.697H383.996Z" fill="white"/>
</svg>
